<svg id="Layer_1" data-name="Layer 1" xmlns="http://www.w3.org/2000/svg" viewBox="0 0 382.62 359.35"><defs><style>.cls-1{fill:#231f20;}</style></defs><path class="cls-1" d="M55.38,154.11A412.46,412.46,0,0,0,97.51,98L90.2,97c2.4,8.46,1.62,17.71,2,26.43s.88,17.36,1.62,26c1.47,17.35,3.75,34.63,6.74,51.79.88,5.06,8.59,2.91,7.71-2.13q-4.62-26.58-6.76-53.51-1-13-1.44-26c-.27-8.26.16-16.67-2.11-24.69a4.05,4.05,0,0,0-7.32-1,400.34,400.34,0,0,1-40.87,54.49c-3.42,3.83,2.21,9.51,5.65,5.66Z" transform="translate(-48.66 -78.44)"/><path class="cls-1" d="M137.19,144.84c7.43.74,14.06-3.52,20.1-7.31A146.67,146.67,0,0,0,174,125.25a159.07,159.07,0,0,0,29-32.71l-7.46-2-9,87.32c-.53,5.11,7.47,5.08,8,0l9-87.32c.45-4.27-5.45-5-7.45-2a151.76,151.76,0,0,1-25.25,28.94A133,133,0,0,1,156,128.83c-5.44,3.6-12,8.69-18.83,8-5.12-.51-5.08,7.5,0,8Z" transform="translate(-48.66 -78.44)"/><path class="cls-1" d="M231.18,138.17c13.83-12.85,25.16-27.94,36.4-43l-7.45-2a743.46,743.46,0,0,0-.64,77.43c.23,5.13,8.23,5.15,8,0a743.46,743.46,0,0,1,.64-77.43c.26-4.37-5.32-4.88-7.46-2-10.84,14.55-21.81,29-35.15,41.4-3.78,3.51,1.89,9.16,5.66,5.66Z" transform="translate(-48.66 -78.44)"/><path class="cls-1" d="M300.89,139.24c9.84-3,17.58-10.09,25.27-16.65q13.17-11.25,25.41-23.49l-6.83-2.82q-1.37,35.09-2.75,70.19c-.2,5.15,7.8,5.14,8,0q1.38-35.1,2.75-70.19c.14-3.52-4.44-5.21-6.83-2.83q-10.94,10.89-22.57,21c-7.37,6.4-15,14.09-24.57,17-4.91,1.52-2.81,9.24,2.12,7.71Z" transform="translate(-48.66 -78.44)"/><path class="cls-1" d="M375.42,134.62c27.45-3.05,49.74-23.58,53.79-51.15.73-5-6.77-7.26-7.71-2.13-6,32.74-11.82,66-5.68,99.22.94,5.06,8.65,2.92,7.72-2.12-5.86-31.66-.09-63.75,5.67-95l-7.71-2.13c-3.5,23.79-21.94,42.6-46.08,45.28-5.06.57-5.12,8.57,0,8Z" transform="translate(-48.66 -78.44)"/><path class="cls-1" d="M67.92,273.86a143.07,143.07,0,0,0,60.25-43.57l-6.28-4.84c-3.71,6.57-5.5,13.76-7.15,21.07q-2.91,12.91-5.35,25.94c-3.15,16.74-5.69,33.59-7.73,50.5-.62,5.1,7.39,5.06,8,0q2.93-24.3,7.44-48.38,2.18-11.56,4.72-23.06c1.66-7.55,3.14-15.23,7-22,2.14-3.8-3.33-8.49-6.28-4.84a135.35,135.35,0,0,1-56.72,41.51c-4.76,1.82-2.69,9.56,2.13,7.71Z" transform="translate(-48.66 -78.44)"/><path class="cls-1" d="M135.41,275.69A92.69,92.69,0,0,0,195,239l-7.46-2c.89,8.49-2.18,17.26-4.09,25.47-2,8.4-4,16.78-5.82,25.2a393.11,393.11,0,0,0-8.15,49.14c-.48,5.12,7.53,5.09,8,0,1.58-17.13,4.91-34,8.7-50.75,1.83-8.1,3.76-16.18,5.63-24.27s4.6-16.46,3.73-24.79a4,4,0,0,0-7.45-2,84.81,84.81,0,0,1-54.79,33c-5.07.82-2.92,8.53,2.13,7.72Z" transform="translate(-48.66 -78.44)"/><path class="cls-1" d="M229.79,277.09a155.3,155.3,0,0,0,58.73-37.84c1.38-1.42,1.71-4.29,0-5.66-7-5.58-10.73,4.37-12.79,9.54a233.47,233.47,0,0,0-9.38,28.93A242.38,242.38,0,0,0,259,331.54c0,5.15,8,5.15,8,0a232.12,232.12,0,0,1,4.79-47.47c1.57-7.52,3.5-15,5.8-22.3q1.65-5.28,3.56-10.48c.63-1.73,1.29-3.46,2-5.17.31-.79,2.85-6.3,1.94-6.21l-2.83-1.18.65.52v-5.66a146.39,146.39,0,0,1-55.19,35.79c-4.81,1.73-2.74,9.47,2.12,7.71Z" transform="translate(-48.66 -78.44)"/><path class="cls-1" d="M324.93,267.84a132.49,132.49,0,0,0,31-23l-6.69-3.9A235.54,235.54,0,0,0,343,273c-1.21,9.77-3.21,21.18.07,30.71,1.66,4.84,9.39,2.76,7.71-2.13-3-8.72-.9-19.63.22-28.58a221.75,221.75,0,0,1,6-30,4,4,0,0,0-6.69-3.89,124.66,124.66,0,0,1-29.38,21.78c-4.54,2.44-.51,9.35,4,6.91Z" transform="translate(-48.66 -78.44)"/><path class="cls-1" d="M381,271c15.33-6.31,30.4-15.37,37.76-30.89l-7.46-2a420.23,420.23,0,0,0-1.79,52c.14,5.14,8.14,5.16,8,0a420.23,420.23,0,0,1,1.79-52c.38-3.9-5.79-5.53-7.45-2-6.45,13.59-19.5,21.66-33,27.22-4.69,1.93-2.63,9.67,2.13,7.71Z" transform="translate(-48.66 -78.44)"/><path class="cls-1" d="M67,399a164.68,164.68,0,0,0,44.45-31.34l-6.83-2.82q-2.82,34.54-5.66,69.1c-.42,5.13,7.59,5.1,8,0q2.84-34.56,5.66-69.1c.3-3.58-4.5-5.12-6.82-2.83a158.16,158.16,0,0,1-42.84,30.08c-4.64,2.23-.58,9.13,4,6.91Z" transform="translate(-48.66 -78.44)"/><path class="cls-1" d="M163.86,396.25c7.21,2.87,14.77-5.83,19.5-10.2,6.32-5.84,11.5-12.4,14.83-20.37l-7.85-1.06q-2.07,28.53-2.2,57.15c0,5.15,8,5.16,8,0q.13-28.61,2.2-57.15c.35-4.91-6.28-4.86-7.86-1.07-2.35,5.64-6.19,10.4-10.49,14.67-2.3,2.27-10.57,11.68-14,10.32-4.78-1.9-6.86,5.83-2.12,7.71Z" transform="translate(-48.66 -78.44)"/><path class="cls-1" d="M239.37,387a138.45,138.45,0,0,0,40.74-29.6,4.09,4.09,0,0,0,0-5.66l-.44-.49a4,4,0,0,0-3.89-1c-5.72,1.77-5.68,9.09-6.55,14q-1.85,10.44-2.84,21a254.26,254.26,0,0,0-.14,45c.42,5.09,8.43,5.14,8,0a255.63,255.63,0,0,1-.52-36.4q.51-8.61,1.62-17.18c.45-3.44,1-6.88,1.59-10.31.17-1,1.48-8.59,1-8.43l-3.89-1,.44.49v-5.66a132.3,132.3,0,0,1-39.11,28.35c-4.65,2.22-.59,9.12,4,6.91Z" transform="translate(-48.66 -78.44)"/><path class="cls-1" d="M333.93,395.28c5.14,0,5.15-8,0-8s-5.16,8,0,8Z" transform="translate(-48.66 -78.44)"/><path class="cls-1" d="M382.71,392c5.14,0,5.15-8,0-8s-5.16,8,0,8Z" transform="translate(-48.66 -78.44)"/><path class="cls-1" d="M427.42,385.53c5.15,0,5.16-8,0-8s-5.15,8,0,8Z" transform="translate(-48.66 -78.44)"/></svg>