<?xml version="1.0" encoding="utf-8"?>
<!-- Generator: Adobe Illustrator 26.0.2, SVG Export Plug-In . SVG Version: 6.00 Build 0)  -->
<svg version="1.1" id="Layer_1" xmlns="http://www.w3.org/2000/svg" xmlns:xlink="http://www.w3.org/1999/xlink" x="0px" y="0px"
	 viewBox="0 0 363.8 437.9" style="enable-background:new 0 0 363.8 437.9;" xml:space="preserve">
<style type="text/css">
	.st0{fill:#8E4F40;}
	.st1{fill:#EBA595;}
	.st2{fill:#FFFFFF;}
</style>
<path class="st0" d="M5.1,139.1c4.4-2.2,9.3-1.7,13.7-1c10.8,1.6,21.6,1.4,32.4,0.9c21.7-1,43.2,2.2,64.8,2.6
	c20.3,0.4,40.6-0.9,60.9-0.2c29.2,1,58.4-0.2,87.6,1.5c3.1,0.2,6.3,0.7,9.4,1c0.6,1,1.3,1,2,0.1c12.5,1.5,25,0.4,37.4,0.8
	c0.9,2-0.4,2.3-1.9,2.3c-6,0.3-11.9,0.9-17.9,0.9c-18.1-0.2-36.2,1.2-54.3-1.7c-12-1.9-24.2-1.3-36.2,0c-7,0.8-13.8-2.4-20.8-0.6
	c-2.6,0.7-4,1.6-3.4,4.3c1.2,7.1,1.2,14.3-0.1,21.3c-0.6,4,0.3,6.5,5.1,5.8c2.5-0.2,5.1-0.2,7.7-0.1c-2.5,2.5-5.5,2.1-8.3,2.1
	c-3.5-0.1-5,0.9-5.2,4.7c-0.4,9.4-2.8,18.7-2,28.2c0.5,5.7-4.5,4.4-7.3,4.9c-3.5,0.7-3.1-2.7-3.1-4.9c0-5.8,0.2-11.6,0.3-17.5
	c0-3.6-0.8-6.1-5.4-5.8c-6,0.4-7.5,1.2-7.6,6.1c-0.1,4.2-1,8.6,0.1,12.4c2.3,8.3-0.8,12.3-8.8,13.9c-1.8,0.3-3.2,2.8-5.3,0.9
	c-1.8-1.6-1.3-3.7-0.7-5.6c2-6.4,3.5-12.9,2.7-19.7c-0.5-4.6,0.8-9.3-7-8.5c-5.2,0.6-9.1,2.7-9,8.2c0.2,6.1,1,12.2,2.3,18.2
	c0.2,1.2,2,2.2,0.8,3.5c-1.3,1.4-3.2,1.2-4.7,0.6c-2.6-1.2-5.6-1.2-8.2,0.1c-3.1,1.4-4.4,0.2-4.3-2.9c0-1.7-0.4-3.5,0.2-4.9
	c2.8-6.2,0.9-12.9,1.8-19.2c0.3-2.3-0.9-3.5-3.1-3.5c-9.8,0.1-19.6-0.2-29.4,0.5c-3.8,0.3-7.5,0.6-11.3,0
	c-7.1-1.1-14.3-1.3-21.3-0.3c-12.7,1.6-25.1,6.9-38.3,2.8c-2.7-0.8-4.5,0.2-3.7,3.7c1.5,6.7-0.2,13.6,0.4,20.4c0.3,3.1-1,3-3,1.6
	c-0.1-1.1-0.2-2.3-0.2-3.4c0-3.9-0.1-7.8-1.7-19.2c0-0.3,0.1-0.7,0.1-1c-0.9-4.1-4.2-8,4.1-12.1c1.7-0.9,3.4-2.2,2.1-3.5
	c-3.8-4.2-2.3-9-2.5-13.6c-0.1-1.6-0.3-3.3-0.4-4.9c0.3-2.7,0.7-5.3,1-8c-0.1-1.3-0.1-2.5-0.2-3.8c0.6-1,0.5-2.2-0.2-3.1
	c-0.1-0.4-0.2-0.7-0.3-1.1C5.1,141.6,5.1,140.3,5.1,139.1z M60.8,172.4c1.4-0.2,2.7-1,3.5-2.2c2.7-1.4,4.1-3.9,6-6.1
	c1.5-1.7,2.9-3.5,4.3-5.3c1.2-1.8,0.4-3.9-1.7-2.9c-4.4,2.1-9.7,1.6-13.4,5.3c-0.3,0.1-0.5,0.2-0.7,0.4c-1.3,0-2.5,0.8-3.1,1.9
	l-2.7,1.4c-0.8-0.3-1.6,0-2.1,0.7l-9,3.2c-1.6-0.1-2.8,0.7-3.9,1.6l-2.3,1.2c-5.6,2.2-10.7,5.7-16.9,6.1c-1,0.1-1.8,1.3-2.8,1.9
	l-1.9,1.6c-4.1,2-9.3,1.4-12.7,5.5c4,2.5,7.9,1.6,11.7,1c8.6,0.4,17.1,0.8,25.7-0.2c2.8,0,5.4-1.5,6.7-4l2.8-2.2
	c4.6-1.9,8.8-4.8,12.1-8.6C60.5,172.7,60.6,172.6,60.8,172.4z M69.1,173.8c2.7,3.5,5.3,4.4,7.8,5.7c8.2,4.4,17.2,3.1,25.9,3.1
	c11.6,0,11.5-0.1,11.1-11.5c-0.1-3.2-1.2-4.3-4.4-4.5c-6.9-0.4-13.7-2.3-20.8-2c-1.4,0.1-3.5-0.4-3.3-2.2c0.1-1.7,2.1-1.1,3.4-1.2
	c6.5-0.3,13-0.4,19.4,0.9c3.9,0.8,6.6,0.1,5.6-4.9c-0.5-2.3,0.5-3.8,2.8-4.6c3.2-1.1,6.5-3,10-1.4c1.5,0.6,1.7,2.2,1.3,3.9
	c-1.9,9.2-1.9,18.5-2,27.7c0,1-0.3,2,0.6,2.8c0.7,0.6,14.1,0.7,14.8,0c0.5-0.4,0.8-1,0.9-1.7c0.6-7.6,1.1-15.2,1.6-22.9
	c0-0.7-0.2-1.3-0.7-1.8c-4-4.4-0.3-5.2,2.9-5.9c2.1-0.4,4.3-0.5,6.4-0.2c3.7,0.4,4.4,2.2,1.9,4.8c-1.5,1.6-2.6,3.1-2.3,5.2
	c1.2,6.9,0.6,13.9,0.8,20.9c0,1.5,0.1,3,1.8,3.7c4.7,2.2,12.2-2.5,12.3-7.6c0-9.8-0.7-19.7,0.3-29.4c0.6-5.9-1.6-6.2-5.9-5.8
	c-0.5,0-1,0.1-1.5,0.1c-13.1,0.9-26.2,1.6-39.4,0.8c-15.6-0.9-31.1-2.3-46.7-3.3c-20.2-1.3-40.6-0.4-60.9-0.6
	c-3.6,0-4.8,1.3-5.4,4.8c-1.3,7.3,0.8,14.6,0,21.9c-0.2,1.6,0.7,2.7,2.3,2.6c5-0.6,9.8,1.1,14.8,0.6c5.3-0.5,9.2-3.5,13.6-5.5
	c8.9-4,18.1-7.1,26.7-11.9c4-2.2,8.6-5.1,14-4.2c3.8,0.7,5.4,1.6,2.8,5.6c-2.3,3.5-5.3,6.4-7.8,9.7c-1,1.3-2,2.9-1.3,4.6
	c0.8,2,2.8,1.3,4.4,1.3c4.6-0.1,9.3-0.7,13.8,0.6c1.5,0.4,4.3-1.2,4.3,1.6c0,2.3-2.5,2.8-4.7,2.6c-1.8-0.2-3.6-0.4-5.5-0.6
	C80.2,175,75.3,174.5,69.1,173.8L69.1,173.8z M120.3,204.6c0-4.5,0-8,0-11.5c0-1.5-0.6-2.7-2.2-2.8c-2.2-0.1-1.6,1.8-1.6,2.9
	c0.1,6.6,0.4,13.3,0.6,19.9c0,1.4,0.5,2.3,2,2.2c1.9-0.1,1.9-1.2,1.8-2.8C120.6,209.6,120.5,206.6,120.3,204.6z M150.3,194.8
	c-0.5-0.5,0.3-2.7-1.7-2.5c-1.8,0.2-2.6,1.9-2.7,3.7c-0.2,6.1-0.7,12.2-1.7,18.3c-0.2,1.1-0.2,2.6,1.1,3c1.7,0.5,2.4-0.9,2.5-2.3
	C148.8,208.4,149.5,201.9,150.3,194.8L150.3,194.8z M120.3,169.6c1.3-4.5,2.4-8,3.2-11.7c0.4-1.9,0.1-3.9-2.6-3.8
	c-2.2,0.1-5.3,1.2-4.5,3.4C117.8,161.2,117.2,165.4,120.3,169.6z M149.9,182.9c-0.6-1.6-0.3-4.8-1.9-4.8c-2.7,0.1-1.9,3.6-2.6,5.5
	c-0.7,2,1.5,2.5,2.8,2.6C150.5,186.4,149.4,184.2,149.9,182.9z"/>
<path class="st1" d="M335.7,8.2c2.6-1.3,5.2-2.9,8.1-0.9c0.8,9.1,1.7,18.1-2.5,26.9c-1.6,3.4-3.2,5.2-6.8,5.1
	c-2.8-0.1-5.6,0.5-8.2,1.7c2.7,1.8,2.7,1.8,5.9,1.8c9.2,0,9.2,0,9,8.9C341,62.5,341,62.5,330,62c-3.3-0.1-6.9-1.5-10.2,1.4
	c3.5,2.3,7.1,1.3,10.4,1.4c10.4,0.2,10.3,0.1,10.8,10.4c0.2,4.2-1.3,4.5-4.7,3.4c-2.9-1-5.8-2.8-9.6-0.9c1,0.6,1.5,1,2,1.3
	c3.7,1.9,9.2-0.3,11.6,3.1c2.5,3.6-1.4,8.2-0.8,12.6c0,0.2,0,0.3,0,0.5c0.2,1.8-0.3,2.8-2.4,2.8c-6.3,0.2-12.5,1-18.9,0.2
	c-9.5-1.1-19-1.8-28.5-1.9c-7.1-0.1-14.2,1.3-21.3,1.4c-10,0.1-19.9-0.5-29.9-0.7c-14.6-0.3-29.2-1.5-43.8-0.4
	C178,97.8,161,95.4,144,95.8c-6.8,0.2-13.6-0.8-20.4-0.8c-2.5,0-4.1-3.2-6.9-1.5c-3,1.8-6.5,1.8-9.7,1.2c-12.5-2-25.1-2.5-37.6-3.3
	c-13.1-0.9-26.3-1.1-39.4-0.8c-5.4,0.1-10.5,1.3-16.1-0.3c-3.8-1.1-4.2-2.8-4-5.9c0.2-3.6,2.3-4.4,5.4-4.4s6.1-0.2,8.9-2.5
	c-0.6-0.1-1.3-0.1-1.9,0c-3.3,0.9-6.9,1.4-9.9,0.4c-4.7-1.5-0.9-5.7-1.6-8.6c-0.4-1.8-0.6-3.6-0.5-5.4c-0.1-6.9,2.4-13.5,1.9-20.4
	c-0.2-2.8,2.2-2.1,3.6-1.7c4.2,1.1,8.6,0.9,12.9,1.4c3.5,0.5,7-0.3,10.1-2.1c0.8-0.3,1.2-1.2,1-2.1c-0.3-0.8-1-0.6-1.7-0.5
	c-7.1,1.3-14.3-0.1-21.4,1.1c-3.4,0.6-4.3-0.7-3.9-3.6c1-7.8-3.1-15.8,1.5-23.4c0.2-0.5,0.3-1,0.2-1.5C14.5,5.3,15,4.6,21,5
	c9.5,0.5,18.9,1.8,28.4,2c17.1,0.4,34.3,0,51.4,0.3c6.1,0.1,12.1,1,18.3,0.3c7.8-0.9,16.2-2.4,23.5-0.6c13.3,3.4,26.7,3.1,40.1,3.3
	c19.4,0.4,38.8-0.9,58.2,0.3c2.3,0.1,4.3,1.9,6.6,0.9c4.6-1.9,9.6-1.6,14.4-1.6c7.6-0.1,15.2,0.2,22.7,0.9
	c15.1,1.5,30.3-0.2,45.4-0.8C332.1,10.1,334.1,9.4,335.7,8.2z M326.3,87.3c-3.8-0.6-7.6-1-11.4-1.7c-2.4-0.4-5.3-0.6-5.3-4.1
	c0-10.1,0-20.1,0.1-30.2c0.1-8.1,0.8-16.3,0.7-24.4c-0.1-4.7-4.4-4.6-7.8-5s-3.8,2.2-3.7,4.6c0.1,3.8,0.4,7.6,0.8,11.4
	c0.4,3.6-0.9,5.6-4.7,5.1c-8.3-1.1-16.6-1-24.8,0.3c-1.1,0.2-2.5,0.6-3.1-0.8c-0.6-1.2,0.2-2.2,1-3.1c2.9-3.9,6.1-7.5,9.5-10.9
	c3.2-3.2,2.5-5.5-1.7-6.6c-4.8-1.3-7.8,0.5-11.4,5.6c-4.1,6-6.3,13.3-11.8,18.3c-9.3,8.5-14.5,20.1-22.1,29.9c-1.5,2-2,4.6,0.1,6.8
	c2.2,2.4,4.7,4.8,8.1,3.5c2.9-1.1,4.7-4,4.2-7.1c-0.2-2.4,0.3-4.9,2-6.3c7.6-6.6,12.1-15.3,16.8-23.8c1.1-2,2.3-2.4,4.7-2.4
	c9.5,0,19,1.4,28.3-0.8c3.9-0.9,4.6-0.1,4.1,3.6c-1.2,10.2-1.9,20.5-3.3,30.6c-0.6,4.6,1.4,6.2,5.2,6.7c6.4,0.9,12.8,1.6,19.3,2.2
	C322.1,89,324.3,89.3,326.3,87.3L326.3,87.3z M226.7,59.9c-1.5,0.1-3,0.1-4.4,0c-3.3-0.4-6.9-0.2-9.7-1.6c-2.4-1.3,0.8-4.6-0.3-6.9
	c-0.1-0.3-0.2-0.6-0.2-1c-0.7-8.3-0.2-16.6,1.6-24.8c0.4-1.9,2.3-4.2,0.3-5.5c-2.8-1.9-6.2-2.5-9.5-1.7c-2.4,0.6-2.3,2.9-2.5,4.9
	C201,34.9,200,46.5,199.1,58c-0.2,3-1.1,4.6-4.5,4.1c-2.2-0.3-4.5-0.6-6.4,1.3c1.6,1.4,3.8,1.9,5.8,1.5c3.2-0.3,4.1,1.1,3.8,4.1
	c-0.3,3-0.1,5.9-0.7,8.9c-0.8,4.1,4.3,10.3,8.4,10.7c3.7,0.3,5.2-2,5.4-8.3c0.1-4.3,0.2-8.7,0.2-13c0-3.9,1.2-6.1,5.9-5.7
	C220.2,62.2,223.6,62.6,226.7,59.9L226.7,59.9z M162.6,22.9l-1.3-1.5c-1.4-0.1-2.8-0.2-4.2-0.3c-1.5-0.1-3-0.2-4.5-0.4
	c-5.5-0.8-8.2,1.3-8.6,6.7c-1.3,19.3-1,38.8-4.9,57.8c-0.3,0.8,0,1.7,0.8,2.2c3,1.9,6.7,2.4,10.1,1.5c2.4-0.7,2.7-3.8,2.7-6.4
	c0-6,0-12,0-18c-0.1-3.5,1.5-5.5,4.8-6.7c2-0.7,4.4-0.9,6.3-3.3c-1.5-0.3-3.1-0.4-4.6-0.4c-4.6,0.6-5.7-1.1-4.8-5.6
	c1-5.2,1.1-10.6,1.5-15.9C156,28.2,154.7,23.1,162.6,22.9z M158.8,46.4c3.8,1.4,6.4,2.2,9.2,2.3c2.4,0.1,3.5,1.1,2.8,3.4
	c-2.4,8.4-1.7,17.1-2.2,25.7c-0.1,2.6,0.2,4.5,2.6,5.8c3.1,1.7,5.9,1.3,8.9-0.6c2.5-1.7,1.8-3.4,1-5.6c-0.4-1-0.1-2.3-0.1-3.5
	c-0.8-14.9,1.3-29.8,0.8-44.8c-0.1-2.9-0.7-6,0.5-8.9c1-2.5,1.3-4.9-2-5.4c-3.1-0.5-7.3-0.4-7.6,3.5c-0.4,6.8-2.4,13.5-2.4,20.2
	c0,5.2-2.4,6.7-6.7,7.3C162.5,46.1,161.3,46.2,158.8,46.4L158.8,46.4z M120.9,83.2c8.2,0.8,8.8-2.3,8.2-9.6c-0.4-5-0.7-10-0.8-14.9
	c-0.2-7.3-0.6-14.5,0.4-21.9c0.8-6.3-1.9-12.8,0.1-19.2c0.3-0.9-0.6-1.4-1.4-1.7c-3.9-1.6-7.6-0.4-10.9,1.3c-2.4,1.2-1.2,4.3-1,6.4
	c1.5,13.9,0.6,27.9,0.6,41.9c0,3-1,5.9-2,8.7C111.5,80.9,113.6,83.7,120.9,83.2L120.9,83.2z M64.4,34.8c4.1,0,8.3,0,12.4,0
	c1.2,0.2,2.3-0.7,2.5-1.9c0.2-1.3-0.7-1.7-1.7-1.9c-8.1-1.3-16.2-0.6-24.3-0.3C52,30.8,51,32,51.1,33.4c0,0,0,0.1,0,0.1
	c0.2,1.5,1.7,1.2,2.8,1.2C57.5,34.8,60.9,34.7,64.4,34.8L64.4,34.8z M263.4,56.9c9.6,3.7,19.7,0.9,29.5,2.3
	C283.5,54.1,273.4,56.3,263.4,56.9L263.4,56.9z M111.5,87.8c-9.6-2.9-19.3-2.1-29-1.2C92.1,89.3,101.7,89.2,111.5,87.8z M279.3,81.9
	c-10,0.2-19.9-2.7-30-1.4C259.1,83,269.3,83.5,279.3,81.9L279.3,81.9z M81.4,77.2l-0.1-1.9c-6.7,0.5-13.3,1.5-20,1
	c-0.9-0.1-1.4,0.8-1.6,1.7c-0.2,1.2,0.9,1.2,1.6,1.2C68,78.5,74.7,77.9,81.4,77.2L81.4,77.2z M32.1,64.4c-6-3.6-12-3.7-19-0.3
	C20,65.5,26.1,64.9,32.1,64.4z M236.8,49.4c-5.3-0.4-9.4-0.8-13.5-1.1c-1.2-0.1-2.6,0.1-2.8,1.5c-0.2,1.9,1.5,1.9,2.8,2
	C227.5,51.9,231.8,51.9,236.8,49.4L236.8,49.4z M39.9,64c5.2-0.4,10.4-0.9,15.6-1.3c0.9-0.1,2.3,0.3,2.2-1.2
	c-0.1-1.2-1.3-1.2-2.3-1.3C49.9,59.8,44.5,61.1,39.9,64z"/>
<path class="st1" d="M3.2,216.7c2,1.4,3.3,1.5,3-1.6c-0.7-6.8,1.1-13.6-0.4-20.4c-0.8-3.5,1-4.5,3.7-3.7c13.2,4.1,25.6-1.2,38.3-2.8
	c7.1-0.9,14.3-0.8,21.3,0.3c3.8,0.6,7.5,0.3,11.3,0c9.8-0.6,19.6-0.4,29.4-0.5c2.2,0,3.4,1.3,3.1,3.5c-0.9,6.4,1,13-1.8,19.2
	c-0.6,1.4-0.2,3.3-0.2,4.9c-0.1,3.1,1.2,4.3,4.3,2.9c2.6-1.2,5.6-1.3,8.2-0.1c1.5,0.6,3.4,0.8,4.7-0.6c1.2-1.3-0.5-2.3-0.8-3.5
	c-1.3-6-2.1-12-2.3-18.2c-0.1-5.5,3.7-7.6,9-8.2c7.9-0.9,6.5,3.8,7,8.5c0.8,6.9-0.7,13.3-2.7,19.7c-0.6,1.9-1.1,4,0.7,5.6
	c2.1,1.9,3.6-0.5,5.3-0.9c7.9-1.6,11-5.5,8.8-13.9c-1.1-3.9-0.2-8.3-0.1-12.4c0.1-4.9,1.6-5.7,7.6-6.1c4.6-0.3,5.4,2.2,5.4,5.8
	c-0.1,5.8-0.3,11.6-0.3,17.5c0,2.2-0.5,5.6,3.1,4.9c2.8-0.5,7.8,0.8,7.3-4.9c-0.8-9.5,1.6-18.8,2-28.2c0.2-3.8,1.7-4.8,5.2-4.7
	c2.8,0.1,5.8,0.4,8.3-2.1c-2.6-0.1-5.1-0.1-7.7,0.1c-4.8,0.6-5.8-1.8-5.1-5.8c1.3-7,1.3-14.3,0.1-21.3c-0.5-2.7,0.8-3.6,3.4-4.3
	c7-1.8,13.8,1.3,20.8,0.6c12.1-1.3,24.2-1.9,36.2,0c18.1,2.9,36.2,1.5,54.3,1.7c6,0.1,11.9-0.6,17.9-0.9c1.5-0.1,2.8-0.3,1.9-2.3
	c5.5-1.2,11,0.5,16.6,0.3c3.6-0.1,7.3-2.5,11-0.1c-0.6,0.8-1.8,1.8-1.6,2.2c3.5,7,1.4,14.4,1.4,21.5c-0.1,11.3,0.4,22.5-0.4,33.9
	c-0.6,9.4-0.7,18.8-2.1,28.1c-1.1,7.1-4.8,8.9-11.7,6.2c-1.7-0.6-4.7-0.9-2.1-4.2c1.2-1.5-0.8-1.7-1.9-1.8
	c-5.3-0.6-10.6-0.5-15.9,0.2c-1.2,0.2-3,0.3-3,1.3c-0.2,5-4,3.5-6.5,3.5c-37.1-0.4-74.2,1.3-111.3-1.7c-7.6-0.6-15.3,0.8-22.8-1.3
	c-3.3-0.9-6.3-1.9-10-1.4c-9.6,1.2-19.3,1.2-28.9,0c-16.7-2.4-33.4-1.9-50.1-2.4c-20.9-0.7-41.9,2.3-62.7-1.9c-2.8-0.6-4.9-1-5-4.2
	c-0.1-2.6-1.8-1.8-3.2-1.6L3.2,216.7z M236.9,188.3c-2.8-0.1-4.9-0.4-6.9-0.3c-5.5,0.2-10.9,0.8-16.4,0.9c-7.4,0.1-7.4,0-7-7.5
	c0.1-2,0-4,0.1-6c0.2-6.3-0.8-12.7,3.3-18.3c1.1-1.5,0-1.9-1.3-2.4c-8.1-3.4-12.7-0.5-12.6,8c0,0.8,0,1.7,0,2.5
	c0.5,16.6-1.4,33-4.2,49.3c-0.2,1.2-0.1,2,0.9,2.5c3.9,1.5,8.2,1.8,12.2,0.7c1.2-0.3,1.7-1.3,1.4-2.7c-1.6-6.6-0.3-13.2-0.4-19.8
	c-0.1-3.1,1.3-4.4,4.6-4.3c6.5,0.3,13,0.3,19.4,0.3C232.2,191,234.6,191.1,236.9,188.3z M302.6,159.8c-7.5,0-7.5,0.1-7,7.5
	c0,0.5,0,1,0.1,1.5c1.5,14,1,28.1-1.6,42c-0.4,2.5-1.1,5-0.4,7.4c1,3.6,3.3,6.1,7.5,5.9c4.1-0.1,4.5-2.7,4.6-6.1
	c0.4-9.1,2.2-18.1,1.2-27.5c-0.8-7.6,0.8-15.5,1.8-23.2C309.8,159.7,310,159.7,302.6,159.8L302.6,159.8z M275.8,162.4
	c-0.5-0.7-1-1.4-1.6-1.9c-3.7-2.8-8.4-2-11.6,1.6c-3.9,4.4-6,10-9.5,14.6c-8.5,11.5-17.2,22.8-25.6,34.4c-1.5,2-4.9,3-4.6,5.5
	c0.4,3,4.5,2.1,6.4,3.9c0.5,0.4,1,0.9,1.5,1.3c2.3,2.8,3.7,2.3,5.3-0.9c3.7-7,7.2-14.2,11.7-20.7c8.5-12.1,17.7-23.8,26.6-35.6
	C275.1,164,275.5,163.2,275.8,162.4z M92.6,220.4c-24.4-3.2-48.8-5.4-74.4-2.2c6.1,2.4,11.3,2,16.6,1.1c5.9-1,11.9-2.6,17.8-1.1
	C65.8,221.5,79.3,219.3,92.6,220.4z M166.2,229.8c6.1-0.7,11.8-1.3,17.5-1.9c5.6-0.6,11.5,1.5,16.6-2.4
	C188.9,225.1,177.1,222,166.2,229.8z M215.5,162c2.2,3.7,27.4,4.5,31.5,1.3C236.5,161.3,226.1,162.2,215.5,162z M58.1,207
	c-7-1.8-14.1-0.8-21.1-0.8C44.1,206.5,50.9,210.4,58.1,207z M275.6,228.2c-5.9-1.8-11.9-1.1-17.9-1.2c-0.3,0-0.8,0.6-0.8,1
	c-0.1,0.8,0.6,1.1,1.2,1.2C264,230.3,270,229.9,275.6,228.2z M278.8,211.1c-9-2.4-9.4-2.4-11.4,1.3
	C271.3,211,275.1,212.2,278.8,211.1L278.8,211.1z"/>
<path class="st1" d="M13,284.8c17.3-0.7,34.5-0.3,51.7,1c1.9,2.8,9.6,4.5,12.4,2.6c0.9-0.6,0.8-1.7,0.9-2.7
	c14.3,0.4,28.5-0.9,42.8-0.7c6,0.1,12.2-0.3,18,1.9c0.5,0.6,1.1,1.7,1.6,1.7c8,0.4,16,1.7,23.9,0.1c1.4-0.3-0.3-0.9-0.6-1.4
	c1.7-1,3.4-0.7,5.2-0.4c-0.1,2-2.5,2-3.4,4.1c6.5-1,12.4,1.3,18.5,1.1c15.5-0.4,30.9,0,46.3,0.7c16.8,0.7,33.6,1.6,50.4,0.3
	c4.2-0.3,8.5-2.2,12.8-0.3c5.1,2.1,10.4,3.5,15.9,4.2c5.4,0.8,10.6,0.9,15.3-3.3c2.8-2.5,7.2-2.3,11-2.2c1.1,0,2,0.6,1.8,1.8
	c-0.8,5.9,1.3,11.6,0.3,17.6c-1.2,7-0.8,7.1-7.7,7.1h-5.5c1.6,2,3,2.8,5,2.6c7.8-0.7,7.8-0.7,8.2,7.3c0,0.8,0,1.7,0.1,2.5
	c0.5,3.8-1,5.6-5,5.6c-6.7-0.1-13.3-0.2-20-0.1c-3.3,0-3.8-1.5-3.6-4.4c0.3-4.8,0.4-9.6,0.3-14.5c-0.2-12.2-0.3-12.2-12.5-11.3
	c-0.2,0-0.3,0-0.5,0c-2.8,0-3.1,1-1.6,3.3c3,4.3,2.8,9.1,1.8,13.9c-0.7,3.4-1.8,6.8-0.5,10.3c0.7,2-0.3,2.7-2.2,2.7
	c-10.6,0-21.3-0.6-31.8,2c-0.8,0.2-1.6,0-2.2-0.5c-0.5-0.9-0.2-2.1,0.7-2.6c7-5.9,10.6-14.4,16.6-21.1c2.3-2.6,1.7-4.9-1.8-5.9
	c-2.5-0.7-5-0.5-6.9,1.6c-4.5,5-10.3,8.9-13.3,15.3c-1.7,3.7-5.9,5.7-7.5,9.8c-0.6,1.5-2.2,1.2-3.5,1.2c-13.6,0-27.3,0.5-40.9-0.8
	c-2-0.2-3.3-0.6-3-2.9c0.4-2.9-0.4-5.6-0.9-8.4c-0.6-3.4,0.5-5.4,4.5-5c4.4,0.5,9-0.2,13.4,0.6c1.7,0.3,3.8,0.7,6-1.1
	c-6.5-2.2-12.5-1-18.4-1.3c-6-0.3-6.9-1.3-4.4-6.8c0.5-1.2,1.6-2.2-0.3-3.2c-3.9-2-8-1-11.5,0.3c-2.3,0.8-0.8,4.2-1.1,6.4
	c-0.1,1.5-0.1,3-0.1,4.5c-0.3,14.9-0.3,14.9-15.5,14.4c-1.8-0.1-5.5,0.2-4.3-2.1c1.4-2.6-3.5-8.5,3.8-7.9c0.9,0.1,2.2,0.3,2.5-1
	c0.3-1-0.3-2-1.3-2.3c0,0-0.1,0-0.1,0c-5.4-0.8-4.4-4.9-4.4-8.5c0-3.8-1.2-7.5-0.8-11.4c0.1-0.7-0.5-2-0.9-2.1
	c-3.3-0.6-6.7-0.2-9.7,1.2c-2.2,0.9-2.6,3.2-2.3,5.6c0.7,6.1,0.8,12.2,0.2,18.3c-1,10.5-0.8,10.9-11.3,9c-1-0.3-1.9-0.5-2.9-0.6
	c-3.3,0.1-3.9-1.9-3.8-4.5c0-5.7-0.1-11.3,0-17c0-2.6,0.2-5.5-3-6c-2.9-0.5-5.8,0.8-7.3,3.4c-1.2,2-1.7,4.4-1.3,6.7
	c0.5,3,0.7,5.9,0.7,8.9c0,3-0.1,6.4-4.5,6.3c-3.7-0.1-5.6-2-6.2-5.8c-1.3-7.6-1.3-15.3-0.1-22.8c0.4-2.3-0.5-3.5-2.5-2.8
	c-3.8,1.2-8.4-3.1-11.5,1.8c-0.1,0.1,0,0.3,0.1,0.5c1,6,0.1,12,0.2,17.9c0.2,7.5,0.2,7.4-6.9,9.3c-2.6,0.7-5.3,1.2-7.6,2.4
	c-4.6,2.4-9.4,2.3-14.1,1.3c-6.8-1.5-13.7-1.2-20.6-1.6c-13.8-0.7-27.6,0.2-41.4-1.1c-3.3-0.3-4.3-1.9-4.2-4.8
	c0-5.7-0.4-11.4,0.2-17C7.7,298.7,6.7,290.6,13,284.8z M68.4,316.7l0-1.5c-1.4-0.2-2.9-0.3-4.3-0.5c-7.4-1.1-14.9,0.7-22.3-0.1
	c-8.9-0.9-17.9-1.2-26.8-1.7c-1.3-0.1-3.5-0.6-3.6,1.5c-0.1,2.3,2.2,2,3.7,2.2c1.5,0.1,3,0.2,4.5,0.1c7.3,0,14.5,0.3,21.8,0.6
	C50.4,317.9,59.4,317.1,68.4,316.7L68.4,316.7z M53.5,306.5c9.4,1.6,18.7,2.2,28-0.8C72.1,304.8,62.8,304.6,53.5,306.5L53.5,306.5z
	 M36.2,304.5c-7.7-2.2-15.6-0.4-22.9-2.9c-1-0.4-2.8-1.5-3.2,0.6c-0.3,1.9,1.6,1.8,2.9,2C20.6,305.2,28.3,306.4,36.2,304.5
	L36.2,304.5z M228.2,328.3c-6-2-12.4-2.2-18.5-0.6C215.8,331,222.1,328.2,228.2,328.3L228.2,328.3z M289.7,327.4
	c-3.3-0.9-6-2.1-9-1.6c-0.8,0.1-1.7,0.3-1.8,1.3c-0.1,1,0.5,1.5,1.4,1.6C283.4,329.1,286.5,329.6,289.7,327.4L289.7,327.4z"/>
<path class="st0" d="M13,284.8c-6.3,5.8-5.4,13.9-6.1,21.3c-0.6,5.6-0.1,11.3-0.2,17c0,2.9,0.9,4.5,4.2,4.8
	c13.8,1.3,27.6,0.4,41.4,1.1c6.9,0.4,13.8,0,20.6,1.6c4.7,1,9.5,1.1,14.1-1.3c2.3-1.2,5-1.7,7.6-2.4c7.1-1.9,7.2-1.9,6.9-9.3
	c-0.2-6,0.8-12-0.2-17.9c0-0.2-0.1-0.4-0.1-0.5c3.1-5,7.7-0.6,11.5-1.8c2.1-0.7,2.9,0.6,2.5,2.8c-1.2,7.6-1.2,15.3,0.1,22.8
	c0.6,3.8,2.5,5.7,6.2,5.8c4.4,0.1,4.4-3.3,4.5-6.3c0-3-0.2-6-0.7-8.9c-0.4-2.3,0-4.7,1.3-6.7c1.5-2.5,4.4-3.9,7.3-3.4
	c3.1,0.6,3,3.4,3,6c-0.1,5.7,0,11.3,0,17c0,2.6,0.6,4.6,3.8,4.5c1,0.1,2,0.3,2.9,0.6c10.5,1.9,10.4,1.5,11.3-9
	c0.6-6.1,0.5-12.2-0.2-18.3c-0.3-2.3,0.2-4.7,2.3-5.6c3.1-1.3,6.4-1.7,9.7-1.2c0.5,0.1,1,1.4,0.9,2.1c-0.4,3.9,0.8,7.6,0.8,11.4
	c0,3.6-1,7.6,4.4,8.5c1,0.2,1.6,1.2,1.4,2.2c0,0,0,0.1,0,0.1c-0.3,1.3-1.6,1.1-2.5,1c-7.3-0.6-2.4,5.4-3.8,7.9
	c-1.2,2.3,2.5,2.1,4.3,2.1c15.2,0.4,15.2,0.4,15.5-14.4c0-1.5,0-3,0.1-4.5c0.3-2.2-1.2-5.6,1.1-6.4c3.6-1.3,7.6-2.3,11.5-0.3
	c1.9,1,0.8,2,0.3,3.2c-2.4,5.4-1.6,6.5,4.4,6.8c5.9,0.3,11.9-1,18.4,1.3c-2.2,1.8-4.3,1.4-6,1.1c-4.5-0.8-9-0.2-13.4-0.6
	c-4.1-0.4-5.2,1.6-4.5,5c0.5,2.8,1.3,5.5,0.9,8.4c-0.3,2.2,1,2.6,3,2.9c13.6,1.4,27.3,0.8,40.9,0.8c1.3,0,2.9,0.3,3.5-1.2
	c1.5-4.1,5.7-6.2,7.5-9.8c3.1-6.4,8.8-10.3,13.3-15.3c1.9-2.1,4.4-2.3,6.9-1.6c3.4,1,4.1,3.2,1.8,5.9c-6,6.7-9.6,15.2-16.6,21.1
	c-0.9,0.5-1.2,1.7-0.7,2.6c0.6,0.5,1.4,0.7,2.2,0.5c10.5-2.7,21.1-2,31.8-2c1.9,0,3-0.7,2.2-2.7c-1.3-3.5-0.2-6.9,0.5-10.3
	c1-4.8,1.2-9.6-1.8-13.9c-1.6-2.3-1.2-3.2,1.6-3.3c0.2,0,0.3,0,0.5,0c12.2-0.9,12.3-0.9,12.5,11.3c0.1,4.8,0.1,9.7-0.3,14.5
	c-0.2,2.9,0.3,4.4,3.6,4.4c6.7-0.1,13.3,0,20,0.1c3.9,0.1,5.5-1.8,5-5.6c-0.1-0.8-0.1-1.7-0.1-2.5c-0.3-8-0.3-8-8.2-7.3
	c-2,0.2-3.5-0.6-5-2.6h5.5c6.9,0,6.6-0.1,7.7-7.1c1-6-1.2-11.7-0.3-17.6c0.2-1.3-0.7-1.8-1.8-1.8c-3.9-0.1-8.2-0.3-11,2.2
	c-4.7,4.2-9.9,4.1-15.3,3.3c-5.5-0.7-10.8-2.1-15.9-4.2c-4.3-1.8-8.6,0-12.8,0.3c-16.8,1.3-33.6,0.4-50.4-0.3
	c-15.4-0.6-30.9-1-46.3-0.7c-6.1,0.1-12-2.1-18.5-1.1c0.9-2.1,3.3-2.1,3.4-4.1c42.9,1.5,85.8,1.8,128.8,1
	c12.1-0.2,24.3,0.7,36.3-1.6c5.9-1.1,11.2,2.3,14,7.5c0.3,0.6,0.5,1.4,0.9,1.7c8.6,6,5.7,15.1,6,23.1c0.3,10.9-0.5,21.9,0.6,32.9
	c0.2,2.1-0.2,4.1-3.1,4.9c-2.6,0.7-3.8,0.1-4.4-2.3c-0.5-2-1.9-1.7-3.5-1.9c-15-1.8-30-2.7-45.1-3c-7.5,0-14.9,0.4-22.3,1.3
	c-5.3,0.5-10.6,0.7-15.9,0.5c-9.1-0.5-18.2-1.5-27.3-2.1c-3.5-0.4-7-0.5-10.5-0.2c-14.6,1.6-29.2,0.2-43.8,0.4c-1.4,0-3,0.4-4.2-1
	c-4.1-5.1-6.8-5.4-11.6-1.3c-10.2,0.6-19.9-2.2-29.7-4.6c-11.3-2.7-22.6-2.8-33.6,0.9c-13.9,4.7-27.8,3.4-41.8,1.5
	c-1.9-0.4-3.9-0.6-5.9-0.6c-10.2,0.8-20.4-1.4-30.6-0.5c-3.5,0.3-7-0.6-7.3-5.5c-0.1-3.1-2.5-4.8-4.9-6.2c-4.5-2.8-5.6-7-6.4-12
	c-1.7-11.1,2.7-21.6,2.5-32.5C6,282.4,10.5,285.1,13,284.8z M343.7,298.8c0,11.8,0.2,22.9-0.1,33.9c-0.3,4.2,1.7,8.2,5.2,10.5
	c-1-12.5,1.1-25-0.7-37.4C347.7,303.2,347.3,300.6,343.7,298.8z M68.7,341.6c-0.8-0.9-2.3-0.2-2.9-1.6c-2.1-5.3-7.2-5.8-11.8-7.2
	c-2.4-0.7-4.2,0-4.9,2c-1.4,3.7-3.8,4-7,3c-1.9-0.6-3.9-0.7-5.7-1.5c-1.1-0.5-1.8-1.5-2.5,0.4c-0.6,1.5-1.1,2.8,0.9,3.7
	c3.1,1.2,6.5,1.3,9.6,0.3c4.1-1.3,8.5-1.6,12.8-0.7C61,340.7,64.7,341.7,68.7,341.6z M104,302.9c0.9,6.2,2.4,12.4,2.1,18.7
	c-0.1,0.9,0.5,1.8,1.4,1.9c0.1,0,0.2,0,0.3,0c0.9,0.2,1.8-0.4,1.9-1.3c0-0.1,0-0.3,0-0.4c0.4-6.6,0.9-13.2,0.9-19.7
	c0-3.5-3.2-1.9-5-2.2C103.1,299.6,104,301.6,104,302.9z M272.9,312.8c-2.8,2.2-4.5,3.7-6.4,5c-6.1,4.2-9,10.9-13.3,16.5
	c-0.6,0.8-2.9,1.5-1.1,3c1.5,1.2,2.7,0.3,3.6-1.3c2.2-4.4,6.3-7.2,9.2-11C267.5,321.4,271.8,319.1,272.9,312.8z M165.8,306.3
	c-0.5-1.7-0.3-4.3-3-4.2c-2.9,0.1-1.7,2.7-1.8,4.3c-0.2,2.8-0.1,5.6,0,8.4c0,1.2-0.4,2.9,1.7,2.9c1.2-0.1,2.1-1.1,2.1-2.4
	c0,0,0,0,0,0C164.7,312.2,165.1,309.2,165.8,306.3z M190.9,326.7L190.9,326.7c0,0.8,0,1.7,0,2.5c-0.1,1.9,0.2,3.5,2.5,3.4
	c2.4-0.2,2.4-1.9,1.8-3.7c-0.5-1.6,0.5-2.9,0.6-4.4c0.2-2.2-1.1-3.1-2.8-3.4c-2.4-0.3-1.9,1.7-2,3.1
	C190.8,325,190.9,325.8,190.9,326.7z M158.6,328.5c-0.6,2.1-0.3,3.4,1.2,3.9c1.1,0.4,2.4,0.7,3.3-0.2c1.4-1.4,0-2.4-0.8-3.4
	c-1.3-1.8,0.4-2.6,1.1-3.8c0.7-1.3,1.2-3.1-0.6-3.9c-1.7-0.7-3,0.7-3.4,2.1C159,325,158.7,326.7,158.6,328.5L158.6,328.5z
	 M176.3,340.9c5.3,0.7,8.6,7.8,15.2,4.8C186.9,341,182.9,339.6,176.3,340.9z M145,340.6c1.2-0.4,2.8,1.7,3.5,0
	c0.8-1.9-1.2-2.8-2.6-3.6c-0.9-0.7-1.9-1.2-3-1.7c-1.3-0.3-3.3-1.3-3.8,0.6c-0.5,1.7,0.5,3.6,2.2,4.1c0.1,0,0.1,0,0.2,0.1
	C142.7,340.4,143.9,340.6,145,340.6L145,340.6z M318.9,342.9c5.5,4,10.5,4.9,13.5,2.7C327.5,342.6,322.6,341.5,318.9,342.9
	L318.9,342.9z M203.5,344.7c-3-0.6-5.1-1.7-2.6-4.5c0.4-0.4,0.3-1.2,0.5-1.7c-0.8-0.2-1.7-0.7-2.3-0.4c-1.7,0.9-3.3,2-4.8,3.2
	c-0.9,0.8-0.8,2.1,0.4,2.2C197.4,343.9,199.5,346.9,203.5,344.7L203.5,344.7z M305.9,327.1c-0.3-1.9,0.6-4.6-1.8-4.8
	c-2.3-0.1-2,2.5-2.3,4.2c0,0.2,0,0.3,0,0.5c0.7,2.5-1.7,7.1,1.4,7.3C306,334.5,304.9,329.5,305.9,327.1z M248.6,341.6
	c3.1,2.8,7,4.5,11.1,5c0.9,0.1,2.1,0.3,2.2-1.1c-0.1-0.8-0.3-1.6-0.5-2.3C257,345.2,253.7,340.2,248.6,341.6z M342.7,344.1
	c-1.1-2.4-3.1-3.1-5.6-2.8c-1.4,0.2-3.8,0.6-3,2.1c1.2,2.3,4.5,1.7,6.8,2.4C341.8,346.1,342.9,345.5,342.7,344.1L342.7,344.1z
	 M232.9,340.5c3.1,1.3,5.6,2.4,8.1,3.5c1,0.5,2.3,1.4,2.9-0.1c0.5-1.4-0.9-2.3-2.1-2.6C239,340.3,235.9,340,232.9,340.5L232.9,340.5
	z M302.4,340.9c-0.1,0.4-0.3,0.7-0.4,1.1c2.5,1.3,5,2.7,7.6,3.8c0.8,0.5,1.9,0.3,2.4-0.5c0.1-0.2,0.2-0.4,0.3-0.7
	c0.4-1.4-0.7-1.7-1.6-1.9C307.9,342,305.1,341.5,302.4,340.9z M106.6,339.3c0.2-1.6-1.1-2.3-2-3.2c-0.9-1.1-2.3-1.5-3.6-1
	c-0.7,0.2-1.1,0.8-1,1.5c0.1,2,1.7,1.6,2.9,2C104.1,338.9,105.1,340.2,106.6,339.3z M276.6,342c2.8,1.6,4.8,3.7,7.7,3
	C282.2,343.5,281,339.7,276.6,342L276.6,342z M216.7,344.5c-7.7-2.4-7.7-2.4-10.2-1.5C209.9,343.9,212.9,345.2,216.7,344.5z
	 M293.1,340.9c-3.1,0.6-5.1-0.5-6.8,1.1c-0.1,0.4,0,0.9,0.2,1.2C288.6,344,290.5,343.8,293.1,340.9L293.1,340.9z M31.6,333.3
	c0-1.6-1.3-1.1-2.1-1.3c-1.2-0.3-2.4-0.4-2.6,1.2c-0.1,1.2,0.8,1.6,1.9,1.6C30.1,335.1,31.2,334.4,31.6,333.3z"/>
<path class="st0" d="M287.8,436c-10.3-1.1-20.5-0.8-30.8-0.6c-7.1,0.2-14.5-0.2-21.7-0.6c-17.8-1-35.5-1.7-53.3-1.1
	c-10.3,0.4-20.6-0.6-30.9-1.7c-26.6-2.9-53.3-4.2-80.1-4c-7.8,0.1-15.6-0.3-23.4-0.4c-11.1-0.3-22.1-1.9-32.8-5
	c-10.9-2.9-12.8-5.9-11.6-17c1.1-9.8-0.8-19.6-0.7-29.4c0.1-4.4,1-6.3,5.8-5.9c11.8,1,23.6,2,35.3,2.6c17.1,0.8,34.6,3.5,51.6-2
	c0.8-0.2,1.6-0.3,2.5-0.4c5.8-0.9,11.7-1.2,17.6-1c8,0.4,16.5-0.2,24.3,3.1c3.6,1.4,7.4,2,11.2,1.8c5.6,2,11.4,1.1,17.2,1l14.8-0.2
	c1.7,0.5,3.5,0.6,5.3,0.1l32.7-0.2c2.1,0.2,4.2,0.4,6.4,0.6c7.1,0.5,14-1.9,21.2-1c3.2,0.4,6.4,1.7,9.7,0.4l2.9,0.3
	c1.2,1.8,2.5,1.6,4,0.3l13.9-0.2c8.1,0,16.2,0.1,24.3,0c2.3,0,4.7,0.2,6.7-1.2l11,0.5c0.9,0.9,2.1,0.8,3.3,0.9
	c10.4,0.9,20.4,2.9,28.6,10.1l0,0c2.3,12.9-0.2,25.8-1.3,38.6c-0.3,4,0.2,8.3-1.7,12.1c-8.9,1.5-17.9,0.5-26.8,0.1
	c-2.6-2-5.4-0.8-8.1-0.6l-1.9-0.4C304.4,433.4,296.1,435.6,287.8,436z M165.7,388.6c0.1,0.7,0.2,1.5,0.3,2.3
	c0.6,3.4-0.6,5.3-4.2,4.9c-2.9-0.3-7.3,1.6-7.1-4.1c0.1-2.1-0.3-4.3,0-6.4c1-6.8,1.1-6.8-5.7-6.8c-0.7,0-1.3,0-2,0
	c-8,0.1-8,0.1-8.1,8c-0.1,7.6-0.1,7.5-7.5,8.3c-3.5,0.4-5-0.9-4.8-4.3c0.1-4,0.4-8,0.2-12c-0.2-5.3-1.6-6.2-7.2-5.6
	c-5.1,0.6-3.4,3.9-2.8,6.7c1.4,4.8,1.5,9.9,0.6,14.8c-0.8,3.6-2.6,4.9-6.5,3.9c-4.2-1.1-6.9-2.6-6.1-7.7c0.4-2.4-0.1-5-0.1-7.5
	c0.2-10.2,0.3-10-9.9-7.8c-13.1,2.8-26.6,3.7-40,2.5c-15.1-1.2-30.1-3.3-45.3-3.2c-2.9,0-3.9,0.8-3.5,3.7c0.7,5.1,0.9,10.3,0.7,15.4
	c-0.2,5.6,0.1,11.3,0.2,17c0,1.4,0.3,4.1,2.1,2.8c4.9-3.5,9.3,0.1,13.9,0c7.2-0.2,14.3-0.2,21.5-0.2c15.4,0,30.6,2.6,46,2.6
	c11,0,22,1,33.1,0.7c17-0.4,33.9,1.9,50.9,1.1c2.9-0.1,6.4,0.3,7.9-2.1c2.9-4.5,6.8-3.9,10.9-3.6c6.8,0.4,13.6,0.5,20.4,1.3
	c3.1,0.4,6.6-0.4,9.5,1.5c-0.7,1.5-2.7,0.4-2.9,1.8s1.4,1.8,2.4,2.1c3.3,1,6.7,1.9,10.1,2.7c10.5,2.4,21.1,0.8,31.7,1
	c21.8,0.3,43.6,0.2,65.4,0.4c3.2,0,4.2-0.8,4-3.9c-0.1-6.3,0.4-12.6,1.5-18.8c0.3-2-1.8-4.2,0.4-6.1c2.7-2.5,2.5-6,3.3-9.2
	c0.5-2,0-3.3-2.1-3.7c-7.9-1.7-16-2.5-24-2.3c-1.9,0.1-3.4,0.8-3.5,3.3c-0.1,3.5-0.7,6.9-0.9,10.4c-0.5,7.8-1.1,8.3-9.2,8.2
	c-3.6,0-4.8-1.6-4.5-4.9c0.4-3.8,0.7-7.6,1.2-11.4c0.8-6.2,0-7-6.2-6.5c-4.5,0.4-8.8,2.1-13.3,1.6c-9.9-1.1-20-0.6-29.9-1.3
	c-4.7-0.5-9.3,1.7-12,5.6c-3.1,4.3-7.5,7.4-9.8,12.4c-1.8,3.9-5.7,2.9-9.1,1.2c-3.3-1.7-2-4.1-1.1-6.4c1.4-3,3.2-5.8,5.5-8.3
	c0.9-1,2.9-1.7,2.1-3.5c-0.6-1.3-2.4-0.9-3.6-0.9c-3.8-0.1-7.6-0.1-11.5,0c-10.3,0.2-10,0.2-9.3,10.8c0.5,6.9-0.7,9.1-7.5,8
	c-8.3-1.3-8.4-1.2-6.4-9.8c0.3-1.3,0.6-2.6,1.1-3.8c1.4-3.7-0.2-5-3.7-4.9c-6,0.1-12,0.4-18,0.4c-1.9,0-2.5,0.9-2.8,2.6
	c-0.6,2.9-0.5,5.9,0.8,8.2C162.9,392,163.7,387.9,165.7,388.6z M348.8,391.4c-0.1-0.8-0.2-1.6-0.5-2.4c-0.7-1.7-1.5-3.9-3.6-3.4
	c-1.6,0.3-0.9,2.6-1,3.9c-0.2,2,0.4,4.2-0.2,5.9c-3.3,9.1-3.2,18.7-4.8,28.1c-0.3,2.2,0.3,4.4,1.8,6c1.3,1.7,3.5,1.8,5.4,1.8
	c1.2,0,0.9-1.5,1-2.4C347.8,416.4,349.6,404,348.8,391.4z M300.2,387.3H300c-0.1,1.5-0.1,3,0,4.5c0.2,1.4-0.9,3.8,1.9,3.6
	c2-0.2,4-0.8,3.7-3.6c-0.4-3.2,0.5-6.3,0.9-9.4c0.2-1.6,0.4-3.6-2.2-3.4c-1.9,0.1-4.3-0.3-4.2,2.8
	C300.3,383.6,300.2,385.4,300.2,387.3L300.2,387.3z M235.8,379.4c-6.8,0-12.3,2.5-15.9,8.4c-0.8,1.3-2.1,3.1-0.5,4.5
	c1.5,1.2,3.1-0.1,4.4-1.1C228.6,388,231.2,382.8,235.8,379.4L235.8,379.4z M199.8,423.5c3.2,3.5,7.2,4.9,12.4,3.9
	C208.1,425,203.9,424.2,199.8,423.5L199.8,423.5z"/>
<path class="st0" d="M335.7,8.2c-1.6,1.2-3.6,1.9-5.6,1.8c-15.1,0.6-30.3,2.3-45.4,0.8c-7.6-0.7-15.2-1-22.7-0.9
	c-4.8,0-9.8-0.3-14.4,1.6c-2.3,1-4.4-0.8-6.6-0.9c-19.4-1.2-38.8,0.1-58.2-0.3c-13.4-0.3-26.8,0-40.1-3.3
	c-7.4-1.9-15.7-0.4-23.5,0.6c-6.2,0.7-12.2-0.2-18.3-0.3C83.6,7,66.5,7.3,49.3,6.9C39.9,6.7,30.4,5.5,21,5c-6-0.3-6.4,0.3-6.5,6.2
	c0,0.5,0,1-0.2,1.5c-4.6,7.5-0.5,15.6-1.5,23.4c-0.4,2.9,0.5,4.2,3.9,3.6c7.1-1.2,14.3,0.2,21.4-1.1c0.7-0.1,1.4-0.3,1.7,0.5
	c0.3,0.8-0.2,1.7-1,2.1c-3,1.8-6.6,2.6-10.1,2.1c-4.3-0.5-8.6-0.3-12.9-1.4c-1.4-0.3-3.8-1.1-3.6,1.7c0.5,6.9-2.1,13.5-1.9,20.4
	c0,1.8,0.1,3.6,0.5,5.4c0.7,2.8-3.1,7.1,1.6,8.6c2.9,0.9,6.6,0.5,9.9-0.4c0.6-0.1,1.3-0.1,1.9,0c-2.9,2.4-5.9,2.6-8.9,2.5
	s-5.1,0.8-5.4,4.4c-0.2,3.2,0.2,4.8,4,5.9c5.5,1.6,10.7,0.4,16.1,0.3c13.1-0.3,26.3-0.1,39.4,0.8c12.5,0.9,25.1,1.3,37.6,3.3
	c3.3,0.5,6.7,0.6,9.7-1.2c2.9-1.7,4.4,1.5,6.9,1.5c6.8,0,13.6,0.9,20.4,0.8c17-0.4,34,2.1,50.9,0.8c14.7-1.1,29.2,0.1,43.8,0.4
	c10,0.2,19.9,0.8,29.9,0.7c7.1-0.1,14.2-1.5,21.3-1.4c9.5,0.1,19.1,0.8,28.5,1.9c6.4,0.8,12.6,0,18.9-0.2c2-0.1,2.6-1,2.4-2.8
	c0-0.2,0-0.3,0-0.5c-0.6-4.3,3.3-9,0.8-12.6c-2.4-3.4-7.9-1.2-11.6-3.1c-0.6-0.3-1.1-0.7-2-1.3c3.8-1.9,6.7,0,9.6,0.9
	c3.4,1.1,4.9,0.8,4.7-3.4c-0.6-10.2-0.4-10.2-10.8-10.4c-3.4-0.1-7,0.9-10.4-1.4c3.3-3,6.9-1.6,10.2-1.4c11,0.4,11,0.5,11.3-10.3
	c0.2-8.9,0.2-8.9-9-8.9c-3.2,0-3.2,0-5.9-1.8c2.5-1.2,5.3-1.8,8.2-1.7c3.6,0.1,5.2-1.7,6.8-5.1c4.2-8.8,3.3-17.8,2.5-26.9
	c2.4-0.9,5.1-0.9,7.5,0.1c0.5,3,2.5,4.8,5.1,6c8.1,10.1,8.5,21.3,5,33.3c-1.5,5.1-0.1,10.2,1.1,15.3c1.1,4.4,1.8,8.8,0.7,13.3
	c-1.9,7.7-1.6,15.5-0.6,23.3c1.7,13.5,1.1,13.8-12.3,13.7c-18.8-0.1-37.6,0.1-56.4,0.1c-3.8,0-7.6-0.7-11.5-0.7
	c-7.3,0-14.8,0.4-21.9,0c-12.6-0.7-25.1,2.1-37.6-0.2c-10.1-1.8-20.2-1.1-30.4-1.4c-25.4-0.7-50.8-0.6-76.1-2.4
	c-6.3-0.4-12.6,0.3-19,0.2c-11.1-0.1-22.3-0.2-33.4-0.8c-10.6-0.6-21.3-0.2-31.9,0c-3.2,0.2-6.3-0.8-8.8-2.7
	c-4.3-3.3-8.8-6.2-12-10.6c-0.5-0.7-1.1-0.6-1.6-0.7c-2.9-0.4-3.4-2-3.3-4.8C7.1,71,7.5,53.7,7.8,36.5c0-3.5-0.2-7-0.6-10.5
	C6.8,21.6,7,17.4,9,13.3c1.3-2.9,2-6,1.9-9.2c0-4.2,1.5-5.1,5-3c2.4,1.4,4.8,1,7.3,1C42.3,2,61.4,1.7,80.5,3.7
	c10,1.1,19.9-0.7,29.9-0.8c13.9-0.2,27.6,1.2,41.3,2.7c20.4,2.2,40.9,1.7,61.3,1.2C238.6,6.1,264.2,6,289.8,7
	C305.1,7.6,320.4,7,335.7,8.2z M301.8,106.9l0.1,0.1L301.8,106.9c-1.8-2.8-9.3-6.1-12.3-5.6c-2.1,0.4,0.6,2-0.7,2.6
	c-4.8-1-9.2-4.3-15-2.1c4,2,8.3,3.3,12.8,4c1.4,0.2,2.7,0.1,2.2-1.9C293.5,103.2,297.3,106.5,301.8,106.9L301.8,106.9z M348.8,15.1
	c0.8,3.8,1.1,7.7,0.8,11.6c-1,20.7-2.6,41.3-3.1,62.1c-0.1,5.6,2.4,9.9,5,14.3c0.8,1.3,2.6,2.8,4.1,2.4c2.2-0.5,1.2-2.8,1.2-4.3
	c0-5.1-0.8-10.4-0.1-15.4c1-7.5,1.5-14.7,0.3-22.2c-1.2-7.6-0.9-15.3,1.1-22.8C360.9,30.3,356.8,22.5,348.8,15.1L348.8,15.1z
	 M324.2,109.3c3.4-0.2,6.9,1.9,8.8-1.1c0.7-1.1-0.7-4.3-2-5.7c-2.1-2.2-5-1.2-8.2-0.5C325.2,104.2,327.1,106.2,324.2,109.3z
	 M348.3,106.6c-2.5-2.3-5-2.6-7.3-3.2c-1.1-0.3-2.9-0.9-3.6,0.5c-0.6,1-0.2,2.6-0.1,3.8c0.1,1.8,2.1,0.7,3.3,0.9
	C343.4,109.1,345.1,106.2,348.3,106.6L348.3,106.6z M191.8,102.3c3,1.3,6,2.8,9,3.9c1.1,0.4,2.9,1,3.6-0.5c0.8-1.8-1.3-2-2.3-2.5
	C199,101.4,195.2,101.1,191.8,102.3L191.8,102.3z M46.1,94.8c6.9,6.7,6.9,6.7,11.7,5C55.4,95.2,51,96.2,46.1,94.8L46.1,94.8z
	 M262.8,105.6c-4.4-2.6-7.9-4.1-12.2-3.1C254.7,102.5,256.9,108.2,262.8,105.6z M310.8,109.7c1.8-0.3,4.3,0.3,4.6-2.4
	c0.2-1.5-1.5-1.4-2.6-1.4c-2,0.1-4.3,0.2-4.6,2.6C307.9,110.2,309.8,109.5,310.8,109.7L310.8,109.7z M179.8,102.2
	c3.6,2.4,6.5,4.6,11,2.8C187.4,102.6,184.3,101.4,179.8,102.2L179.8,102.2z M146.8,100.3c2.5,1,4.9,2.2,7.3,3.5
	c1.2,0.7,1.7,0.6,2.3-0.4c0.9-1.6-0.2-2-1.4-2.3C152.3,100.4,149.5,100.1,146.8,100.3L146.8,100.3z M237.9,102.3
	c4.1,2.8,8.2,2.5,12,3.2C246.6,102.9,243,101.2,237.9,102.3L237.9,102.3z M35.1,96.6c3.4,0.4,5.7,4.9,9.8,2.9
	C41.7,98,38.8,96.1,35.1,96.6L35.1,96.6z M165.9,106.2c-2.1-2.8-4.8-3-7.3-3c-0.9,0-1.1,1.2-0.7,2c1.6,2.9,4.3,1,6.5,1.5
	C164.6,106.7,165,106.5,165.9,106.2L165.9,106.2z M103.5,100.2c-2.4-2.6-5.1-4.7-9.7-3.8C97,98.8,99.9,100.2,103.5,100.2
	L103.5,100.2z M274.8,105.7c-4.2-2-7-4.6-12.6-3.1C267.1,103.4,269.6,106.8,274.8,105.7L274.8,105.7z M28,97.2
	c1,2.2,2.3,3.1,4.2,3.1c0.4,0,1.2-1,1.1-1.3C32.5,97.1,30.8,97,28,97.2L28,97.2z M233.4,105c-3.2-3.3-5.8-2.9-8.5-2L233.4,105z"/>
<path class="st0" d="M3.1,221.1c1.4-0.2,3.1-1,3.2,1.6c0.1,3.2,2.3,3.7,5,4.2c20.8,4.2,41.8,1.2,62.7,1.9
	c16.7,0.5,33.4,0.1,50.1,2.4c9.6,1.2,19.3,1.3,28.9,0c3.7-0.4,6.7,0.5,10,1.4c7.5,2.1,15.2,0.7,22.8,1.3c37,3,74.2,1.4,111.3,1.7
	c2.5,0,6.3,1.6,6.5-3.5c0-1.1,1.8-1.2,3-1.3c5.3-0.7,10.6-0.8,15.9-0.2c1.1,0.1,3,0.2,1.9,1.8c-2.6,3.4,0.4,3.6,2.1,4.2
	c6.9,2.6,10.6,0.9,11.7-6.2c1.4-9.3,1.5-18.7,2.1-28.1c0.7-11.3,0.3-22.6,0.4-33.9c0-7.1,2.1-14.5-1.4-21.5
	c-0.2-0.4,1.1-1.5,1.6-2.2c3.1-0.5,5.5,0.4,6.7,3.6c1.2,3.1,4.1,4.7,6.6,6.7c4.5,3.7,6.5,7.9,6.3,14.2c-0.6,20.6-0.2,41.3-0.4,61.9
	c0,6.8-0.3,13.6-0.7,20.5c-0.2,3.9-2,4.7-5.1,2.3c-1.4-1.1-2.8-0.9-4.2-0.9c-18.3,1-36.5-0.8-54.8-0.6c-9.1,0.1-18.1-1.9-27.2-2.7
	c-13.6-1.2-27.2-0.1-40.8,0c-17.3,0.1-34.4-3-51.8-2.8c-19,0.3-37.9-0.1-56.9-0.2c-6.3,0-12.6-0.1-18.5-2.7
	c-0.8-0.3-1.6-0.3-2.5-0.2c-20.7,1.7-41.4-1-62,0.3c-3.1,0.2-6.3-0.3-9.1,1.7c-2,1.4-2.9-0.4-3.8-1.8c3.5-9.5,3.1-10.8-3.7-12.4
	c1.9,3.3,0.6,6.1-1.2,8.9l-3.4-2.4c2.4-5.8,1.2-7.5-5-7.2c-1.1,0-2.3,0.1-3.4,0.2C3.7,228.1,1.8,225,3.1,221.1z M346.1,157.6
	c-1,4.1-1.3,8.2-1,12.4c0.6,11.8,2.4,23.6-1.1,35.3c-0.4,1.4-0.4,3,0,4.4c1.7,5,0.3,9.9,0.4,14.8c0.1,6.5-4.6,14.4,4.4,18.9
	c1.5,0.8,2.2,3.8,4.1,3c1.8-0.7,1.3-3.5,1.9-5.3c0.1-0.5,0.1-1,0.1-1.5c0.4-21.6,0.6-43.3,1.5-64.9
	C356.6,166.5,354,160.9,346.1,157.6L346.1,157.6z M135.7,243.1c3.7,1.8,5.3-1.8,8-2.2c2.7-0.4,2.3-1.8,0.4-3.2
	c-1.2-0.9-2.6-1.4-4.1-1.5c-2.2,0-5.6-0.8-2.5,3.2C139.3,241.8,136.5,241.9,135.7,243.1L135.7,243.1z M295.8,241.6
	c3.9,2.5,7.4,5.7,13.4,6C305.1,242.5,300.6,241.6,295.8,241.6L295.8,241.6z M309.9,242.3c2.5,2.3,4.4,5.5,8.2,5.3
	c1.1-0.1,2.1-0.3,2.2-1.5c0.1-1.2-0.9-1.6-1.9-1.9C315.6,243.5,312.7,242.9,309.9,242.3L309.9,242.3z M48,232.4
	c0.7,2-1.3,5.4,2.6,5.4c1.9,0,4-1,3.8-2.5C53.9,231.7,50.3,233.3,48,232.4z M332.9,243.2c2.8,2,5.9,3.4,9.2,4.3
	c0.8,0.2,2.1,0.6,2.4-0.8c0.2-0.9-0.6-1.5-1.3-1.9C340.1,242.9,336.4,242.3,332.9,243.2L332.9,243.2z M253.9,241
	c-1.2,0.2-3.2-0.2-2.7,1.8c0.6,2.4,3.4,2.8,5.3,3.7c0.9,0.5,2-0.1,1.5-1.5C257.3,243,257.1,240.4,253.9,241L253.9,241z M58.2,236.9
	c0.3,1.5,1.5,2.6,2.9,2.8c1.3,0.3,1.8-0.6,1.7-1.7c-0.1-1.3,0-2.8-1.9-2.8C59.7,235.2,58.5,235.3,58.2,236.9L58.2,236.9z
	 M113.2,234.5c-2.6-0.5-4.8-1.4-6.9,0c-0.4,0.5-0.3,1.2,0.2,1.6c0.1,0,0.1,0.1,0.2,0.1C109.1,237.4,111,236.2,113.2,234.5
	L113.2,234.5z M90.5,232.9c-1.2,0-2.5-0.1-2.5,1.6c0,1.4,0.9,2.6,2.3,2.9c1.9,0.5,2-1.4,2.3-2.5C92.9,233.4,91.8,232.9,90.5,232.9z
	 M157,239.7c-3.9-2.1-3.9-2.1-7.2-0.8C153.1,240.7,153.1,240.7,157,239.7L157,239.7z"/>
<path class="st1" d="M349.6,436.7c1.9-3.8,1.4-8.1,1.7-12.1c1.1-12.8,3.5-25.7,1.3-38.6c1.2,0,1.7,0.6,2,1.8
	c2.2,10.5,2.5,21.3,0.8,31.9c-0.5,3.5-0.4,6.9-0.8,10.3C354.2,433.1,354,436.5,349.6,436.7z"/>
<path class="st1" d="M309.8,374.5c-2,1.5-4.4,1.2-6.7,1.2c-8.1,0-16.2,0-24.3,0c3.9-3.5,9.1-3.3,13.6-3.4c4.8-0.1,9.8,0.5,14.7,0.6
	C308.2,373,309.3,373.1,309.8,374.5z"/>
<path class="st1" d="M352.6,386c-8.2-7.2-18.2-9.2-28.6-10.1c-1.1-0.1-2.4,0.1-3.3-0.9c2.3-2,5.1-1.1,7.6-0.9
	c7.7,0.3,15,2.2,21.4,6.6C351.5,381.8,353.2,383.4,352.6,386z"/>
<path class="st1" d="M258,375.4c-3.3,1.4-6.5,0.1-9.7-0.4c-7.1-1-14.1,1.4-21.2,1c-2.1-0.1-4.2-0.4-6.4-0.6c4-3.2,8.9-1.5,13.2-2.2
	c7.6-1,15.2-0.7,22.7,0.9C257.1,374.2,257.5,375,258,375.4z"/>
<path class="st1" d="M17.7,240.5c1.8-2.8,3.1-5.6,1.2-8.9c6.8,1.6,7.2,2.9,3.7,12.4C20.6,243.5,18.9,242.2,17.7,240.5z"/>
<path class="st1" d="M287.8,436c8.3-0.5,16.6-2.6,25-0.3c-7.6,1.3-15.3,1.9-23,1.7C289.1,437.4,288.5,436.5,287.8,436z"/>
<path class="st0" d="M163.8,287.3c0.3,0.5,2,1.1,0.6,1.4c-7.9,1.5-15.9,0.3-23.9-0.1c-0.6,0-1.1-1.1-1.6-1.7
	C147.2,286,155.5,288.7,163.8,287.3z"/>
<path class="st1" d="M5.9,231c1.1-0.1,2.3-0.1,3.4-0.2c6.2-0.3,7.4,1.5,5,7.2C11.5,235.8,7.5,234.8,5.9,231z"/>
<path class="st1" d="M167.9,375.6c-5.7,0.1-11.5,0.9-17.2-1c0.2-1,1.1-1.8,2.2-1.6c4.6,0.3,9.2,0.7,13.8,1.2
	C167.2,374.3,167.5,375.2,167.9,375.6z"/>
<path class="st1" d="M163.8,346.8c4.8-4,7.5-3.7,11.6,1.3C171.4,348.7,167.6,347.4,163.8,346.8z"/>
<path class="st0" d="M78.1,285.8c-0.1,0.9,0.1,2-0.9,2.7c-2.8,1.9-10.6,0.2-12.4-2.6L78.1,285.8z"/>
<path class="st1" d="M356.4,13.4c-2.6-1.2-4.6-3-5.1-6C355.5,7.3,356.1,10.2,356.4,13.4z"/>
<path class="st1" d="M5.8,150.9c-0.3,2.7-0.7,5.4-1,8C1.4,155.7,2.6,153.2,5.8,150.9z"/>
<path class="st1" d="M314.6,436.1c2.7-0.1,5.6-1.4,8.1,0.6C320,438,317.2,438.9,314.6,436.1z"/>
<path class="st1" d="M187.9,375.6c-1.7,0.4-3.5,0.4-5.3-0.1C184.5,373.4,186.3,373.2,187.9,375.6z"/>
<path class="st1" d="M5.1,139.1c0,1.2,0,2.5,0,3.7c-1.3,0-2.1-0.5-2.1-1.9C2.9,139.4,3.9,139,5.1,139.1z"/>
<path class="st1" d="M264.8,376c-1.4,1.3-2.8,1.4-4-0.3c0.9-1,2.5-1.2,3.5-0.3C264.5,375.6,264.7,375.8,264.8,376z"/>
<path class="st1" d="M5.4,143.9c0.7,0.9,0.8,2.1,0.2,3.1C3.4,146.2,3.4,145.1,5.4,143.9z"/>
<path class="st1" d="M275.8,143.9c-0.7,0.9-1.4,0.9-2-0.1C274.5,142.8,275.2,142.9,275.8,143.9z"/>
<path class="st1" d="M69.1,173.8c6.2,0.6,11.1,1.1,16,1.6c1.8,0.2,3.6,0.4,5.5,0.6c2.2,0.2,4.6-0.3,4.7-2.6c0-2.8-2.8-1.2-4.3-1.6
	c-4.6-1.3-9.2-0.7-13.8-0.6c-1.6,0-3.6,0.7-4.4-1.3c-0.7-1.7,0.3-3.3,1.3-4.6c2.4-3.3,5.5-6.2,7.8-9.7c2.6-4,1-4.9-2.8-5.6
	c-5.4-1-10,1.9-14,4.2c-8.6,4.8-17.8,7.9-26.7,11.9c-4.4,2-8.3,5.1-13.6,5.5c-5,0.5-9.9-1.2-14.8-0.6c-1.6,0.2-2.5-1-2.3-2.6
	c0.9-7.3-1.2-14.5,0-21.9c0.6-3.5,1.8-4.8,5.4-4.8c20.3,0.2,40.7-0.7,60.9,0.6c15.5,1,31.1,2.4,46.7,3.3c13.2,0.8,26.2,0.1,39.4-0.8
	c0.5,0,1-0.1,1.5-0.1c4.3-0.4,6.5,0,5.9,5.8c-1,9.7-0.3,19.6-0.3,29.4c0,5.1-7.6,9.8-12.3,7.6c-1.7-0.8-1.8-2.2-1.8-3.7
	c-0.2-7,0.4-14-0.8-20.9c-0.4-2.2,0.8-3.7,2.3-5.2c2.5-2.6,1.8-4.4-1.9-4.8c-2.1-0.3-4.3-0.2-6.4,0.2c-3.2,0.7-6.9,1.5-2.9,5.9
	c0.4,0.5,0.7,1.1,0.7,1.8c-0.5,7.6-1,15.2-1.6,22.9c-0.1,0.6-0.4,1.2-0.9,1.7c-0.7,0.7-14.1,0.6-14.8,0c-0.9-0.8-0.6-1.8-0.6-2.8
	c0-9.3,0.1-18.6,2-27.7c0.4-1.7,0.1-3.2-1.3-3.9c-3.5-1.6-6.7,0.3-10,1.4c-2.2,0.8-3.3,2.3-2.8,4.6c1,5-1.7,5.7-5.6,4.9
	c-6.4-1.2-12.9-1.2-19.4-0.9c-1.2,0.1-3.2-0.5-3.4,1.2c-0.2,1.8,1.9,2.3,3.3,2.2c7-0.3,13.8,1.6,20.8,2c3.2,0.2,4.3,1.3,4.4,4.5
	c0.4,11.5,0.5,11.6-11.1,11.5c-8.7,0-17.6,1.3-25.9-3.1C74.4,178.2,71.8,177.3,69.1,173.8z"/>
<path class="st2" d="M58.7,161.7c0.2-0.2,0.4-0.3,0.7-0.4c2.4-0.1,4.8-0.2,7.2-0.5c2.6-0.3,3.5,1.1,3.6,3.4c-1.9,2.1-3.3,4.7-6,6.1
	c-1.5,0.2-4.3-1.8-3.5,2.2c-0.1,0.1-0.3,0.2-0.4,0.3c-3.3-0.3-10.3,4.6-12.1,8.6c-0.9,0.7-1.9,1.5-2.8,2.2c-3.2-0.2-5.1,1.6-6.7,4
	c-8.6,0.9-17.1,0.6-25.7,0.2l1-6.6l1.9-1.6c5,0.7,9.9-0.6,14.5-2.2c2.4-0.8,5.3-2.3,5.2-5.8l2.3-1.2c2.2,1.9,2.8,1.7,3.9-1.6l9-3.2
	c1.3,1.8,1.7,0.7,2.1-0.7l2.7-1.4C57.2,163.9,58.7,164.1,58.7,161.7z"/>
<path class="st1" d="M120.3,204.6c0.1,2,0.2,5,0.6,7.9c0.2,1.6,0.1,2.7-1.8,2.8c-1.5,0.1-1.9-0.8-2-2.2c-0.2-6.6-0.5-13.3-0.6-19.9
	c0-1.1-0.6-3,1.6-2.9c1.6,0.1,2.2,1.3,2.2,2.8C120.4,196.6,120.3,200.1,120.3,204.6z"/>
<path class="st1" d="M150.3,194.8c-0.8,7.1-1.5,13.6-2.4,20.2c-0.2,1.4-0.8,2.8-2.5,2.3c-1.4-0.4-1.3-1.8-1.1-3
	c1-6,1.5-12.2,1.7-18.3c0-1.8,0.8-3.5,2.7-3.7C150.6,192.2,149.8,194.3,150.3,194.8z"/>
<path class="st1" d="M120.3,169.6c-3.1-4.2-2.5-8.4-3.8-12c-0.8-2.2,2.2-3.3,4.5-3.4c2.7-0.1,3,1.9,2.6,3.8
	C122.7,161.6,121.5,165.1,120.3,169.6z"/>
<path class="st1" d="M14,181.1l-1,6.6c-3.9,0.5-7.8,1.4-11.7-1C4.7,182.4,10,183.1,14,181.1z"/>
<path class="st1" d="M35.6,171.5c0,3.5-2.9,5-5.2,5.8c-4.6,1.6-9.4,2.9-14.5,2.2c0.9-0.7,1.8-1.9,2.8-1.9
	C24.9,177.3,30,173.7,35.6,171.5z"/>
<path class="st1" d="M70.2,164.2c-0.1-2.3-1.1-3.6-3.6-3.4c-2.4,0.2-4.8,0.3-7.2,0.5c3.6-3.7,9-3.2,13.4-5.3c2.1-1,2.9,1.1,1.7,2.9
	C73.2,160.7,71.7,162.5,70.2,164.2z"/>
<path class="st1" d="M149.9,182.9c-0.5,1.4,0.6,3.5-1.8,3.4c-1.3-0.1-3.4-0.6-2.8-2.6c0.7-2-0.1-5.4,2.6-5.5
	C149.6,178.1,149.3,181.3,149.9,182.9z"/>
<path class="st1" d="M48.2,181.3c1.8-4,8.8-8.9,12.1-8.6C57,176.5,52.9,179.4,48.2,181.3z"/>
<path class="st1" d="M38.8,187.5c1.6-2.4,3.5-4.3,6.7-4C44.1,186,41.6,187.5,38.8,187.5z"/>
<path class="st1" d="M41.8,168.8c-1.1,3.3-1.7,3.5-3.9,1.6C39.1,169.5,40.3,168.7,41.8,168.8z"/>
<path class="st1" d="M60.8,172.4c-0.9-4,2-1.9,3.5-2.2C63.5,171.5,62.2,172.3,60.8,172.4z"/>
<path class="st1" d="M58.7,161.7c0,2.4-1.5,2.3-3.1,1.9C56.2,162.4,57.4,161.7,58.7,161.7z"/>
<path class="st1" d="M52.9,165c-0.3,1.4-0.7,2.4-2.1,0.7C51.3,164.9,52.2,164.7,52.9,165z"/>
<path class="st0" d="M326.3,87.3c-2,2-4.2,1.6-6.2,1.5c-6.4-0.6-12.9-1.3-19.3-2.2c-3.7-0.5-5.8-2.1-5.2-6.7
	c1.4-10.2,2.1-20.4,3.3-30.6c0.4-3.7-0.2-4.6-4.1-3.6c-9.3,2.2-18.9,0.8-28.3,0.8c-2.4,0-3.6,0.5-4.7,2.4
	c-4.7,8.6-9.2,17.3-16.8,23.8c-1.7,1.5-2.2,3.9-2,6.3c0.4,3.1-1.3,6-4.2,7.1c-3.3,1.3-5.9-1.2-8.1-3.5c-2.1-2.2-1.6-4.8-0.1-6.8
	c7.6-9.8,12.7-21.4,22.1-29.9c5.5-5,7.7-12.3,11.8-18.3c3.6-5.2,6.6-6.9,11.4-5.6c4.2,1.1,4.9,3.4,1.7,6.6c-3.4,3.4-6.6,7-9.5,10.9
	c-0.7,1-1.5,1.9-1,3.1c0.6,1.4,2,0.9,3.1,0.8c8.2-1.3,16.6-1.4,24.8-0.3c3.8,0.5,5-1.5,4.7-5.1c-0.4-3.8-0.7-7.6-0.8-11.4
	c-0.1-2.4,0.3-5,3.7-4.6c3.4,0.3,7.7,0.2,7.8,5c0.1,8.1-0.6,16.3-0.7,24.4c-0.2,10.1-0.1,20.1-0.1,30.2c0,3.5,2.9,3.7,5.3,4.1
	C318.7,86.3,322.5,86.8,326.3,87.3z M235.1,79.5c7.2-11.1,18.3-19.6,22.9-32.7C248.3,56.1,241.3,67.4,235.1,79.5L235.1,79.5z"/>
<path class="st0" d="M226.7,59.9c-3.1,2.7-6.5,2.2-9.7,1.9c-4.6-0.5-5.8,1.8-5.9,5.7c0,4.3-0.1,8.7-0.2,13c-0.2,6.3-1.7,8.7-5.4,8.3
	c-4.2-0.4-9.3-6.6-8.4-10.7c0.6-3,0.4-6,0.7-8.9c0.3-3-0.6-4.4-3.8-4.1c-2.1,0.4-4.2-0.2-5.8-1.5c1.9-2,4.3-1.7,6.4-1.3
	c3.4,0.5,4.3-1.1,4.5-4.1c0.9-11.6,1.8-23.1,2.8-34.7c0.2-2,0-4.3,2.5-4.9c3.3-0.8,6.7-0.1,9.5,1.7c2,1.3,0.1,3.6-0.3,5.5
	c-1.8,8.1-2.3,16.5-1.6,24.8c0,0.3,0.1,0.7,0.2,1c1.1,2.4-2.1,5.7,0.3,6.9c2.8,1.4,6.4,1.2,9.7,1.6C223.7,60,225.2,60,226.7,59.9z
	 M206.7,68.6c-0.1-1.4-0.7-2.6-2.3-2.4c-1.6,0.1-1.3,1.6-1.3,2.7c0,1.2,0.2,2.5,1.6,2.5C206.4,71.5,206.5,70,206.7,68.6L206.7,68.6z
	"/>
<path class="st0" d="M162.6,22.9c-7.9,0.1-6.5,5.2-6.8,9.6c-0.3,5.3-0.5,10.7-1.5,15.9c-0.9,4.5,0.2,6.2,4.8,5.6
	c1.5,0,3.1,0.1,4.6,0.4c-1.9,2.4-4.3,2.6-6.3,3.3c-3.3,1.2-4.8,3.2-4.8,6.7c0.1,6,0,12,0,18c0,2.6-0.3,5.7-2.7,6.4
	c-3.4,0.9-7.1,0.4-10.1-1.5c-0.7-0.5-1-1.3-0.8-2.2c3.9-19.1,3.6-38.5,4.9-57.8c0.4-5.3,3.1-7.4,8.6-6.7c1.5,0.2,3,0.3,4.5,0.4
	c1.4,0.1,2.8,0.2,4.2,0.3L162.6,22.9z"/>
<path class="st0" d="M158.8,46.5c2.5-0.3,3.8-0.4,5-0.5c4.2-0.6,6.7-2,6.7-7.3c0-6.7,2-13.4,2.4-20.2c0.2-3.9,4.4-4,7.6-3.5
	c3.2,0.5,3,2.9,2,5.4c-1.1,2.9-0.5,5.9-0.5,8.9c0.4,14.9-1.7,29.8-0.8,44.8c0.1,1.2-0.2,2.4,0.1,3.5c0.8,2.1,1.5,3.9-1,5.6
	c-2.9,1.9-5.7,2.3-8.9,0.6c-2.5-1.3-2.8-3.3-2.6-5.8c0.5-8.6-0.1-17.3,2.2-25.7c0.7-2.3-0.5-3.4-2.8-3.4
	C165.2,48.7,162.5,47.9,158.8,46.5z"/>
<path class="st0" d="M120.9,83.2c-7.2,0.5-9.4-2.3-7-9.1c1-2.8,2-5.7,2-8.7c0-14,0.9-27.9-0.6-41.9c-0.2-2.2-1.4-5.2,1-6.4
	c3.3-1.7,7.1-2.9,10.9-1.3c0.8,0.3,1.7,0.9,1.4,1.7c-2,6.5,0.7,13-0.1,19.2c-1,7.4-0.5,14.6-0.4,21.9c0.1,5,0.4,10,0.8,14.9
	C129.7,80.9,129,84,120.9,83.2z M120.1,53H120c0,7.6,0,15.3,0,22.9c0,1.8-0.5,3.8,2.4,3.8c3.1,0,2.2-2.3,2.2-3.9
	c-0.2-7.8-0.6-15.6-0.7-23.4c-0.1-9.6-0.1-19.3-0.1-28.9c0-1.3,0.3-2.9-1.6-3.1c-1.1-0.2-2.3-0.1-3.3,0.5c-1,0.9-1.1,2.5-0.2,3.5
	c0,0,0.1,0.1,0.1,0.1c1.6,1.9,1.3,4,1.3,6.2C120.2,38,120.1,45.5,120.1,53L120.1,53z"/>
<path class="st0" d="M64.4,34.8c-3.5,0-7,0-10.4,0c-1.1,0-2.6,0.3-2.8-1.2c-0.2-1.4,0.7-2.6,2.1-2.8c0,0,0.1,0,0.1,0
	c8.1-0.2,16.2-1,24.3,0.3c1,0.2,2,0.6,1.7,1.9c-0.2,1.2-1.3,2.1-2.5,1.9C72.7,34.8,68.6,34.8,64.4,34.8z"/>
<path class="st0" d="M263.4,56.9c10-0.5,20.1-2.8,29.5,2.3C283.1,57.8,273,60.6,263.4,56.9z"/>
<path class="st0" d="M111.5,87.8c-9.8,1.3-19.4,1.4-29-1.2C92.2,85.8,101.9,85,111.5,87.8z"/>
<path class="st0" d="M279.3,81.9c-10,1.7-20.2,1.2-30-1.4C259.4,79.2,269.3,82.1,279.3,81.9z"/>
<path class="st0" d="M81.4,77.2c-6.7,0.6-13.3,1.3-20,1.9c-0.7,0.1-1.8,0.1-1.6-1.2c0.1-0.8,0.6-1.7,1.6-1.7c6.7,0.5,13.3-0.5,20-1
	L81.4,77.2z"/>
<path class="st0" d="M32.1,64.4c-6.1,0.5-12.2,1.1-19-0.3C20.1,60.7,26.2,60.8,32.1,64.4z"/>
<path class="st0" d="M236.8,49.4c-5,2.5-9.3,2.6-13.5,2.4c-1.2-0.1-3-0.1-2.8-2c0.2-1.3,1.6-1.6,2.8-1.5
	C227.4,48.6,231.5,48.9,236.8,49.4z"/>
<path class="st0" d="M39.9,64c4.6-2.8,10-4.2,15.4-3.9c1,0.1,2.2,0.1,2.3,1.3c0.1,1.5-1.3,1.1-2.2,1.2C50.3,63.1,45.1,63.5,39.9,64z
	"/>
<path class="st0" d="M236.9,188.3c-2.3,2.8-4.7,2.7-6.9,2.7c-6.5,0-13,0-19.4-0.3c-3.3-0.1-4.6,1.2-4.6,4.3
	c0.1,6.6-1.2,13.3,0.4,19.8c0.4,1.4-0.2,2.5-1.4,2.7c-4,1.1-8.3,0.8-12.2-0.7c-1-0.4-1.2-1.3-0.9-2.5c2.8-16.3,4.7-32.7,4.2-49.3
	c0-0.8,0-1.7,0-2.5c0-8.5,4.6-11.4,12.6-8c1.2,0.5,2.3,0.9,1.3,2.4c-4.1,5.6-3.1,12-3.3,18.3c-0.1,2,0,4-0.1,6
	c-0.4,7.5-0.4,7.6,7,7.5c5.5-0.1,10.9-0.7,16.4-0.9C232,187.9,234.1,188.2,236.9,188.3z"/>
<path class="st0" d="M302.6,159.8c7.3,0,7.1-0.1,6.2,7.5c-0.9,7.7-2.6,15.6-1.8,23.2c1,9.4-0.7,18.3-1.2,27.5
	c-0.2,3.4-0.6,6-4.6,6.1c-4.2,0.1-6.5-2.3-7.5-5.9c-0.7-2.4,0-4.9,0.4-7.4c2.5-13.8,3.1-28,1.6-42c-0.1-0.5-0.1-1-0.1-1.5
	C295.1,159.8,295.1,159.8,302.6,159.8z"/>
<path class="st0" d="M275.8,162.4c-0.4,0.8-0.8,1.5-1.3,2.3c-8.9,11.9-18.1,23.5-26.6,35.6c-4.5,6.5-8.1,13.7-11.7,20.7
	c-1.6,3.1-3,3.7-5.3,0.9c-0.5-0.5-1-0.9-1.5-1.3c-1.9-1.8-6-0.9-6.4-3.9c-0.3-2.4,3.1-3.4,4.6-5.5c8.4-11.6,17.1-22.9,25.6-34.4
	c3.4-4.7,5.6-10.2,9.5-14.6c3.1-3.6,7.9-4.4,11.6-1.6C274.9,161.1,275.4,161.7,275.8,162.4z M263.1,171.4
	c-5.6,2.2-7.2,7.9-10.7,12.1c-0.8,1-2.5,2.6-0.9,3.8c1.5,1.1,2.7-0.6,3.6-1.7C258.8,181.5,260.6,176.3,263.1,171.4L263.1,171.4z
	 M239.8,203.8l-1.1-0.7c-3.2,2.9-4.7,7.3-8.3,10.1c-1.4,1.1,0,2.4,0.7,3.5s1.5,0.7,1.9-0.1C235.3,212.3,237.6,208.1,239.8,203.8
	L239.8,203.8z"/>
<path class="st0" d="M92.6,220.4c-13.3-1.1-26.8,1.1-40-2.2c-5.8-1.5-11.9,0.2-17.8,1.1c-5.3,0.9-10.5,1.2-16.6-1.1
	C43.8,215,68.2,217.2,92.6,220.4z"/>
<path class="st0" d="M166.2,229.8c10.9-7.7,22.7-4.7,34.1-4.3c-5.1,3.9-11.1,1.8-16.6,2.4C178,228.5,172.3,229.1,166.2,229.8z"/>
<path class="st0" d="M215.5,162c10.6,0.2,21-0.7,31.5,1.3C242.9,166.5,217.6,165.7,215.5,162z"/>
<path class="st0" d="M58.1,207c-7.2,3.4-14-0.6-21.1-0.8C44,206.2,51.1,205.2,58.1,207z"/>
<path class="st0" d="M275.6,228.2c-5.7,1.8-11.7,2.1-17.5,1c-0.6-0.1-1.3-0.4-1.2-1.2c0.1-0.4,0.6-1,0.8-1
	C263.7,227.1,269.8,226.4,275.6,228.2z"/>
<path class="st0" d="M278.8,211.1c-3.7,1.1-7.5-0.1-11.4,1.3C269.4,208.7,269.8,208.7,278.8,211.1z"/>
<path class="st0" d="M68.4,316.7c-9,0.3-18,1.1-27,0.8c-7.3-0.3-14.5-0.6-21.8-0.6c-1.5,0-3,0-4.5-0.1c-1.6-0.2-3.9,0.1-3.7-2.2
	c0.1-2.1,2.3-1.5,3.6-1.5c8.9,0.4,17.9,0.7,26.8,1.7c7.5,0.8,14.9-1.1,22.3,0.1c1.4,0.2,2.9,0.3,4.3,0.5L68.4,316.7z"/>
<path class="st0" d="M53.5,306.5c9.3-1.9,18.6-1.6,28-0.8C72.3,308.7,62.9,308.1,53.5,306.5z"/>
<path class="st0" d="M36.2,304.5c-8,2-15.6,0.7-23.2-0.3c-1.2-0.2-3.2-0.1-2.9-2c0.3-2.1,2.1-1,3.2-0.6
	C20.7,304.1,28.6,302.2,36.2,304.5z"/>
<path class="st0" d="M228.2,328.3c-6.1,0-12.4,2.8-18.5-0.6C215.8,326.1,222.2,326.3,228.2,328.3z"/>
<path class="st0" d="M289.7,327.4c-3.3,2.2-6.3,1.7-9.4,1.3c-0.9-0.1-1.5-0.6-1.4-1.6c0.1-1,1-1.2,1.8-1.3
	C283.8,325.4,286.5,326.5,289.7,327.4z"/>
<path class="st1" d="M343.7,298.8c3.6,1.8,4.1,4.4,4.4,7.1c1.8,12.4-0.3,24.9,0.7,37.4c-3.6-2.3-5.6-6.3-5.2-10.5
	C343.9,321.7,343.7,310.6,343.7,298.8z"/>
<path class="st1" d="M68.7,341.6c-4,0.2-7.7-0.8-11.5-1.7c-4.3-0.8-8.6-0.6-12.8,0.7c-3.2,1-6.6,0.9-9.6-0.3c-2-0.8-1.5-2.2-0.9-3.7
	c0.7-1.9,1.4-0.9,2.5-0.4c1.8,0.8,3.8,1,5.7,1.5c3.2,1,5.6,0.8,7-3c0.7-2,2.6-2.7,4.9-2c4.6,1.4,9.6,1.9,11.8,7.2
	C66.4,341.4,68,340.6,68.7,341.6z"/>
<path class="st1" d="M104,302.9c0-1.3-1-3.3,1.7-3c1.9,0.2,5-1.3,5,2.2c0,6.6-0.6,13.2-0.9,19.7c0,0.9-0.7,1.7-1.6,1.7
	c-0.1,0-0.3,0-0.4,0c-0.9,0-1.7-0.7-1.8-1.6c0-0.1,0-0.2,0-0.3C106.4,315.3,104.9,309.1,104,302.9z"/>
<path class="st1" d="M272.9,312.8c-1.1,6.3-5.4,8.6-8,12.1c-2.9,3.8-6.9,6.7-9.2,11c-0.8,1.6-2.1,2.5-3.6,1.3
	c-1.8-1.5,0.5-2.2,1.1-3c4.3-5.6,7.2-12.3,13.3-16.5C268.4,316.4,270.1,314.9,272.9,312.8z"/>
<path class="st1" d="M165.8,306.3c-0.8,2.9-1.1,5.9-1.1,9c0.1,1.2-0.8,2.3-2,2.4c0,0,0,0,0,0c-2.1,0.1-1.6-1.7-1.7-2.9
	c-0.1-2.8-0.1-5.6,0-8.4c0.1-1.6-1.2-4.2,1.8-4.3C165.6,302,165.3,304.6,165.8,306.3z"/>
<path class="st1" d="M190.9,326.7c0-0.8-0.1-1.7,0-2.5c0.1-1.4-0.4-3.4,2-3.1c1.7,0.2,3,1.2,2.8,3.4c-0.1,1.5-1.1,2.8-0.6,4.4
	c0.6,1.8,0.6,3.5-1.8,3.7c-2.3,0.2-2.6-1.5-2.5-3.4C190.9,328.3,190.9,327.5,190.9,326.7L190.9,326.7z"/>
<path class="st1" d="M158.6,328.5c0.1-1.8,0.3-3.5,0.8-5.2c0.4-1.4,1.7-2.8,3.4-2.1c1.8,0.8,1.3,2.5,0.6,3.9c-0.6,1.2-2.4,2-1.1,3.8
	c0.7,1,2.2,2,0.8,3.4c-0.9,0.9-2.3,0.6-3.3,0.2C158.3,331.9,158.1,330.6,158.6,328.5z"/>
<path class="st1" d="M176.3,340.9c6.5-1.3,10.6,0.1,15.2,4.8C184.9,348.7,181.6,341.6,176.3,340.9z"/>
<path class="st1" d="M145,340.6c-1.2-0.1-2.3-0.2-3.4-0.4c-1.8-0.4-2.9-2.2-2.5-3.9c0-0.1,0-0.1,0.1-0.2c0.5-2,2.5-1,3.8-0.6
	c1.1,0.4,2.1,1,3,1.7c1.4,0.8,3.4,1.6,2.6,3.6C147.8,342.3,146.2,340.2,145,340.6z"/>
<path class="st1" d="M318.9,342.9c3.7-1.4,8.6-0.4,13.5,2.7C329.4,347.8,324.5,346.9,318.9,342.9z"/>
<path class="st1" d="M203.5,344.7c-4.1,2.2-6.1-0.8-8.8-1.2c-1.2-0.2-1.3-1.5-0.4-2.2c1.5-1.2,3.1-2.3,4.8-3.2
	c0.5-0.3,1.5,0.2,2.3,0.4c-0.2,0.6-0.1,1.3-0.5,1.7C198.4,343,200.5,344.1,203.5,344.7z"/>
<path class="st1" d="M305.9,327.1c-1,2.4,0.1,7.4-2.7,7.2c-3.1-0.2-0.7-4.7-1.4-7.3c0-0.2,0-0.3,0-0.5c0.2-1.7-0.1-4.4,2.3-4.2
	C306.5,322.5,305.6,325.2,305.9,327.1z"/>
<path class="st1" d="M248.6,341.6c5-1.5,8.4,3.5,12.7,1.6c0.3,0.7,0.5,1.5,0.5,2.3c0,1.5-1.3,1.3-2.2,1.1
	C255.6,346.2,251.7,344.4,248.6,341.6z"/>
<path class="st1" d="M342.7,344.1c0.1,1.4-0.9,2-1.8,1.8c-2.4-0.7-5.6-0.1-6.8-2.4c-0.8-1.6,1.6-2,3-2.1
	C339.6,341,341.6,341.7,342.7,344.1z"/>
<path class="st1" d="M232.9,340.5c3-0.4,6.1-0.2,9,0.8c1.2,0.3,2.7,1.1,2.1,2.6c-0.6,1.5-1.9,0.6-2.9,0.1
	C238.5,342.8,236,341.8,232.9,340.5z"/>
<path class="st1" d="M302.4,340.9c2.8,0.6,5.6,1.2,8.3,1.8c0.9,0.2,2,0.6,1.6,1.9c-0.2,1-1.1,1.6-2,1.5c-0.2,0-0.5-0.1-0.7-0.3
	c-2.6-1.2-5.1-2.5-7.6-3.8C302.1,341.6,302.2,341.2,302.4,340.9z"/>
<path class="st1" d="M106.6,339.3c-1.5,0.9-2.5-0.4-3.7-0.8c-1.2-0.3-2.8,0-2.9-2c-0.1-0.7,0.4-1.3,1-1.5c1.3-0.4,2.7,0,3.6,1
	C105.5,337,106.8,337.7,106.6,339.3z"/>
<path class="st1" d="M276.6,342c4.4-2.3,5.5,1.5,7.7,3C281.4,345.7,279.5,343.6,276.6,342z"/>
<path class="st1" d="M216.7,344.5c-3.8,0.7-6.8-0.6-10.2-1.5C209,342.1,209,342.1,216.7,344.5z"/>
<path class="st1" d="M293.1,340.9c-2.6,2.9-4.5,3.1-6.6,2.2c-0.3-0.3-0.3-0.8-0.2-1.2C288,340.4,290,341.6,293.1,340.9z"/>
<path class="st1" d="M31.6,333.3c-0.4,1.1-1.6,1.8-2.7,1.6c-1.1,0-2-0.4-1.9-1.6c0.2-1.6,1.4-1.6,2.6-1.2
	C30.3,332.2,31.6,331.7,31.6,333.3z"/>
<path class="st1" d="M165.7,388.6c-2-0.8-2.8,3.4-4,1.4c-1.3-2.2-1.4-5.3-0.8-8.2c0.3-1.7,0.9-2.6,2.8-2.6c6-0.1,12-0.3,18-0.4
	c3.4-0.1,5.1,1.2,3.7,4.9c-0.5,1.3-0.8,2.5-1.1,3.8c-1.9,8.6-1.9,8.5,6.4,9.8c6.8,1.1,7.9-1.1,7.5-8c-0.8-10.5-1.1-10.6,9.3-10.8
	c3.8-0.1,7.6-0.1,11.5,0c1.3,0,3-0.5,3.6,0.9c0.8,1.8-1.2,2.5-2.1,3.5c-2.3,2.4-4.1,5.2-5.5,8.3c-1,2.3-2.2,4.7,1.1,6.4
	c3.4,1.7,7.3,2.8,9.1-1.2c2.3-5.1,6.7-8.2,9.8-12.4c2.6-3.9,7.2-6.1,12-5.6c10,0.6,20,0.2,29.9,1.3c4.6,0.5,8.9-1.2,13.3-1.6
	c6.3-0.5,7,0.3,6.2,6.5c-0.5,3.8-0.9,7.6-1.2,11.4c-0.3,3.2,0.8,4.9,4.5,4.9c8.1,0,8.7-0.4,9.2-8.2c0.2-3.5,0.8-6.9,0.9-10.4
	c0.1-2.5,1.6-3.2,3.5-3.3c8.1-0.2,16.1,0.6,24,2.3c2.1,0.4,2.6,1.8,2.1,3.7c-0.8,3.2-0.6,6.7-3.3,9.2c-2.2,2-0.1,4.1-0.4,6.1
	c-1.2,6.2-1.7,12.5-1.5,18.8c0.1,3-0.9,3.9-4,3.9c-21.8-0.3-43.6-0.1-65.4-0.4c-10.6-0.2-21.2,1.4-31.7-1c-3.4-0.8-6.8-1.7-10.1-2.7
	c-1-0.3-2.6-0.7-2.4-2.1s2.2-0.4,2.9-1.8c-3-1.9-6.4-1.1-9.5-1.5c-6.8-0.8-13.6-0.9-20.4-1.3c-4.1-0.2-8-0.9-10.9,3.6
	c-1.5,2.4-5.1,1.9-7.9,2.1c-17,0.8-33.9-1.5-50.9-1.1c-11.1,0.2-22.1-0.8-33.1-0.7c-15.4,0-30.6-2.6-46-2.6c-7.2,0-14.3,0-21.5,0.2
	c-4.6,0.1-9.1-3.5-13.9,0c-1.8,1.3-2.1-1.4-2.1-2.8c-0.1-5.7-0.4-11.3-0.2-17c0.2-5.2-0.1-10.3-0.7-15.4c-0.4-2.8,0.6-3.7,3.5-3.7
	c15.2-0.1,30.2,1.9,45.3,3.2c13.4,1.2,26.9,0.3,40-2.5c10.1-2.2,10.1-2.4,9.9,7.8c-0.1,2.5,0.5,5.1,0.1,7.5
	c-0.9,5.1,1.9,6.6,6.1,7.7c3.8,1,5.7-0.3,6.5-3.9c1-4.9,0.8-10-0.6-14.8c-0.7-2.8-2.3-6.1,2.8-6.7c5.7-0.6,7.1,0.3,7.2,5.6
	c0.1,4-0.1,8-0.2,12c-0.1,3.4,1.4,4.7,4.8,4.3c7.4-0.8,7.4-0.6,7.5-8.3c0.1-7.9,0.1-7.9,8.1-8c0.7,0,1.3,0,2,0c6.8,0,6.7,0,5.7,6.8
	c-0.3,2.1,0.1,4.3,0,6.4c-0.2,5.8,4.2,3.8,7.1,4.1c3.6,0.4,4.8-1.6,4.2-4.9C165.8,390.1,165.8,389.3,165.7,388.6z M186,402.5
	c-2.6,0.3-4.5,0.8-6.4,0.6c-13-1.2-26-2.7-39-3.8c-3.8-0.3-7.6-0.3-11.4,0c-1.6,0.1-2.9,1.4-2.9,3c0,2.1,1.8,2.1,3.3,2.1
	c3.1,0.1,6.2-0.6,9-1.9c4.6-2.4,9.3-2.3,14-0.3c9.2,3.8,18.7,3.9,28.4,3.2C182.5,405.1,184.7,405.4,186,402.5z M75.2,405.7
	c-1.4,0.2-3.6-0.3-3.8,2c-0.2,2,1.6,2.8,3.3,3c1.8,0.2,3.6,0.1,5.5,0.2c4.8,0.2,9.8-1,14.3,0.6c4,1.4,7.4,0.2,10.9-0.7
	c1.4-0.3,2.6-1.2,2.1-2.8c-0.4-1.5-1.9-0.9-3-1C94.9,406.1,85,408.1,75.2,405.7L75.2,405.7z M268.1,399.8c1.8,0,3.7,0.1,5.5,0
	c1.5-0.1,3.9,0.8,3.9-1.6c0-1.8-2.3-2.1-3.9-2.3c-11.1-1.6-22.3-0.5-33.5-0.9c-0.9,0-2.3-0.4-2.5,0.9c-0.2,1.6,1.3,1.8,2.4,1.8
	C249.4,397.5,258.7,399.6,268.1,399.8L268.1,399.8z M252.4,404.9v-0.2c-4.6,0-9.3,0-13.9,0c-1.2,0-2.3,0.4-2.5,1.8
	c-0.3,1.3,0.6,2.6,1.9,2.9c0.1,0,0.1,0,0.2,0c1.3,0.1,2.6,0.2,4,0.2c4,0.5,8-1.6,11.7-0.8c4.2,0.9,8.5,0.7,12.7-0.4
	c1.2-0.3,3.2-0.1,3.1-1.8c-0.1-1.8-2.1-1.8-3.6-1.8C261.4,404.9,256.9,404.9,252.4,404.9L252.4,404.9z M291.5,415.7
	c9.9,1.7,19.8,3.4,29.6-0.4C311.2,413.5,301.3,411.3,291.5,415.7z M245.5,414l0,1.3c3.7,1.2,7.5,2.1,11.2,3.6c2.4,0.9,3.6,0.1,4-1.9
	c0.5-2.3-1.5-2.8-3.1-2.9C253.5,413.9,249.5,414.1,245.5,414L245.5,414z M38.6,407c-5.1-2.1-10-1.2-14.7,0.2
	C28.7,411.2,33.6,411.4,38.6,407z M273.2,388.4c-5-1.4-10.2-2.8-16.8-1.9C262.6,389.4,267.9,388.2,273.2,388.4L273.2,388.4z
	 M56.9,394.2c3.4,0.8,6.8,1.1,10.1,2.4c1.5,0.6,4.2,0.7,4.3-1.8c0-2.1-2.5-1.9-3.9-1.8C63.8,393.1,60.4,393.7,56.9,394.2L56.9,394.2
	z"/>
<path class="st1" d="M348.8,391.4c0.8,12.6-1,25-1.9,37.5c-0.1,0.9,0.2,2.5-1,2.4c-1.9,0-4.1-0.1-5.4-1.8c-1.4-1.7-2.1-3.9-1.8-6
	c1.6-9.4,1.5-19,4.8-28.1c0.6-1.8,0.1-3.9,0.2-5.9c0.1-1.4-0.6-3.6,1-3.9c2.1-0.4,2.9,1.8,3.6,3.4
	C348.5,389.8,348.7,390.6,348.8,391.4z"/>
<path class="st1" d="M300.2,387.3c0-1.8,0-3.7,0-5.5c-0.1-3.2,2.3-2.7,4.2-2.8c2.6-0.2,2.5,1.7,2.2,3.4c-0.4,3.1-1.3,6.2-0.9,9.4
	c0.3,2.8-1.7,3.5-3.7,3.6c-2.9,0.2-1.8-2.2-1.9-3.6c-0.1-1.5-0.1-3,0-4.5L300.2,387.3z"/>
<path class="st1" d="M235.8,379.4c-4.6,3.4-7.3,8.6-11.9,11.8c-1.4,0.9-2.9,2.3-4.4,1.1c-1.6-1.3-0.3-3.1,0.5-4.5
	C223.5,381.9,229,379.5,235.8,379.4z"/>
<path class="st1" d="M199.8,423.5c4.2,0.7,8.3,1.5,12.4,3.9C207,428.4,203,427,199.8,423.5z"/>
<path class="st1" d="M348.8,15.1c8,7.4,12.1,15.2,9.3,25.7c-2,7.4-2.3,15.2-1.1,22.8c1.2,7.5,0.8,14.8-0.3,22.2
	c-0.7,5,0.1,10.3,0.1,15.4c0,1.5,1,3.8-1.2,4.3c-1.5,0.3-3.4-1.1-4.1-2.4c-2.5-4.4-5.1-8.7-5-14.3c0.4-20.7,2.1-41.4,3.1-62.1
	C349.9,22.9,349.7,18.9,348.8,15.1z"/>
<path class="st1" d="M324.2,109.3c2.9-3.1,0.9-5.1-1.4-7.4c3.2-0.6,6.1-1.7,8.2,0.5c1.3,1.4,2.7,4.6,2,5.7
	C331.2,111.2,327.6,109.1,324.2,109.3z"/>
<path class="st1" d="M348.3,106.6c-3.2-0.3-4.9,2.5-7.6,2c-1.2-0.2-3.2,0.8-3.3-0.9c-0.1-1.2-0.5-2.7,0.1-3.8
	c0.8-1.4,2.5-0.8,3.6-0.5C343.4,104,345.9,104.3,348.3,106.6z"/>
<path class="st1" d="M191.8,102.3c3.4-1.3,7.2-0.9,10.4,0.9c1,0.5,3.1,0.7,2.3,2.5c-0.7,1.5-2.5,0.9-3.6,0.5
	C197.8,105.1,194.8,103.7,191.8,102.3z"/>
<path class="st1" d="M288.8,103.9c0.5,2-0.8,2.1-2.2,1.9c-4.5-0.6-8.8-2-12.8-4C279.6,99.7,284,103,288.8,103.9L288.8,103.9z"/>
<path class="st1" d="M46.1,94.8c4.9,1.5,9.3,0.5,11.7,5C53,101.4,53,101.4,46.1,94.8z"/>
<path class="st1" d="M288.8,104c1.3-0.6-1.4-2.2,0.7-2.6c3-0.6,10.4,2.8,12.3,5.6l0,0C297.3,106.5,293.5,103.2,288.8,104L288.8,104z
	"/>
<path class="st1" d="M262.8,105.6c-5.9,2.6-8.2-3.1-12.2-3.1C254.9,101.5,258.5,103,262.8,105.6z"/>
<path class="st1" d="M310.8,109.7c-1-0.3-2.9,0.4-2.7-1.2c0.3-2.4,2.7-2.5,4.6-2.6c1.1,0,2.8-0.2,2.6,1.4
	C315.1,110,312.6,109.4,310.8,109.7z"/>
<path class="st1" d="M179.8,102.2c4.5-0.8,7.7,0.3,11,2.8C186.3,106.8,183.4,104.7,179.8,102.2z"/>
<path class="st1" d="M146.8,100.3c2.7-0.2,5.5,0.1,8.1,0.7c1.3,0.3,2.3,0.8,1.4,2.3c-0.6,1-1.1,1.2-2.3,0.4
	C151.7,102.5,149.3,101.3,146.8,100.3z"/>
<path class="st1" d="M237.9,102.2c5.1-1.1,8.7,0.7,12,3.2C246.1,104.8,242,105,237.9,102.2z"/>
<path class="st1" d="M35.1,96.6c3.7-0.4,6.6,1.5,9.8,2.9C40.8,101.4,38.5,96.9,35.1,96.6z"/>
<path class="st1" d="M165.9,106.2c-0.9,0.3-1.2,0.5-1.5,0.5c-2.2-0.5-5,1.4-6.5-1.5c-0.4-0.7-0.2-2,0.7-2
	C161.1,103.2,163.7,103.4,165.9,106.2z"/>
<path class="st1" d="M103.5,100.2c-3.6,0-6.5-1.4-9.7-3.8C98.4,95.5,101.1,97.6,103.5,100.2z"/>
<path class="st1" d="M274.8,105.7c-5.2,1.1-7.7-2.2-12.6-3.1C267.8,101.1,270.6,103.7,274.8,105.7z"/>
<path class="st1" d="M28,97.2c2.7-0.2,4.5-0.1,5.3,1.8c0.1,0.2-0.7,1.3-1.1,1.3C30.4,100.3,29,99.5,28,97.2z"/>
<path class="st1" d="M233.4,105l-8.5-2C227.6,102.1,230.2,101.7,233.4,105z"/>
<polygon class="st1" points="301.8,106.9 301.9,107 301.8,106.9 "/>
<path class="st1" d="M346.1,157.6c8,3.3,10.6,8.9,10.2,17.2c-0.9,21.6-1,43.2-1.5,64.9c0,0.5,0,1-0.1,1.5c-0.6,1.8-0.1,4.6-1.9,5.3
	c-1.9,0.8-2.5-2.2-4.1-3c-9-4.5-4.3-12.4-4.4-18.9c0-4.9,1.3-9.8-0.4-14.8c-0.4-1.5-0.4-3,0-4.4c3.5-11.7,1.7-23.5,1.1-35.3
	C344.7,165.8,345.1,161.6,346.1,157.6z"/>
<path class="st1" d="M135.7,243.1c0.8-1.2,3.6-1.3,1.7-3.6c-3.1-4,0.3-3.3,2.5-3.2c1.5,0,2.9,0.6,4.1,1.5c1.9,1.3,2.3,2.7-0.4,3.2
	C141,241.3,139.4,244.9,135.7,243.1z"/>
<path class="st1" d="M295.8,241.6c4.8-0.1,9.2,0.9,13.4,6C303.2,247.3,299.7,244.1,295.8,241.6z"/>
<path class="st1" d="M309.9,242.3c2.8,0.6,5.7,1.3,8.5,1.9c1,0.2,2,0.7,1.9,1.9c-0.1,1.2-1.2,1.4-2.2,1.5
	C314.3,247.8,312.4,244.6,309.9,242.3z"/>
<path class="st1" d="M48,232.4c2.3,0.9,6-0.7,6.4,2.9c0.2,1.5-1.9,2.6-3.8,2.5C46.6,237.8,48.6,234.4,48,232.4z"/>
<path class="st1" d="M332.9,243.2c3.5-0.9,7.3-0.4,10.3,1.6c0.7,0.4,1.5,1,1.3,1.9c-0.3,1.4-1.6,1-2.4,0.8
	C338.8,246.7,335.6,245.2,332.9,243.2z"/>
<path class="st1" d="M253.9,241c3.2-0.6,3.4,2,4.1,3.9c0.6,1.5-0.6,2-1.5,1.5c-2-1-4.7-1.3-5.3-3.7
	C250.7,240.8,252.7,241.2,253.9,241z"/>
<path class="st1" d="M58.2,236.9c0.4-1.6,1.5-1.7,2.7-1.7c2,0,1.8,1.5,1.9,2.8c0.1,1.2-0.4,2-1.7,1.7
	C59.6,239.5,58.4,238.3,58.2,236.9z"/>
<path class="st1" d="M113.2,234.5c-2.2,1.7-4.1,2.9-6.5,1.8c-0.5-0.3-0.7-1-0.4-1.5c0-0.1,0.1-0.1,0.1-0.2
	C108.4,233.1,110.6,234,113.2,234.5z"/>
<path class="st1" d="M90.5,232.9c1.3,0,2.5,0.5,2.1,2c-0.3,1.1-0.4,3-2.3,2.5c-1.3-0.3-2.3-1.6-2.3-2.9
	C88,232.8,89.3,232.9,90.5,232.9z"/>
<path class="st1" d="M157,239.7c-3.9,1-3.9,1-7.2-0.8C153.1,237.6,153.1,237.6,157,239.7z"/>
<path class="st1" d="M235.1,79.5c6.1-12,13.2-23.4,22.9-32.7C253.5,59.8,242.4,68.3,235.1,79.5z"/>
<path class="st1" d="M206.7,68.6c-0.1,1.4-0.3,2.9-2,2.8c-1.4-0.1-1.6-1.4-1.6-2.5c0-1.1-0.3-2.5,1.3-2.7
	C205.9,66.1,206.5,67.3,206.7,68.6z"/>
<path class="st1" d="M120.1,53c0-7.5,0-15,0-22.4c0-2.1,0.3-4.3-1.3-6.2c-1-0.9-1-2.5-0.1-3.5c0,0,0.1-0.1,0.1-0.1
	c1-0.5,2.2-0.7,3.3-0.5c1.9,0.2,1.6,1.9,1.6,3.1c0.1,9.6,0,19.3,0.1,28.9c0.1,7.8,0.5,15.6,0.7,23.4c0,1.6,0.9,3.9-2.2,3.9
	c-3,0-2.4-2-2.4-3.8c0-7.6,0-15.3,0-22.9L120.1,53z"/>
<path class="st1" d="M263.1,171.4c-2.5,4.9-4.3,10.1-7.9,14.2c-0.9,1-2.1,2.8-3.6,1.7c-1.6-1.2,0-2.9,0.9-3.8
	C255.9,179.3,257.5,173.6,263.1,171.4z"/>
<path class="st1" d="M239.8,203.8c-2.2,4.2-4.5,8.5-6.8,12.7c-0.4,0.8-1.2,1.2-1.9,0.1s-2.1-2.4-0.7-3.5c3.5-2.7,5-7.1,8.3-10.1
	L239.8,203.8z"/>
<path class="st0" d="M186,402.5c-1.3,3-3.5,2.7-5,2.8c-9.6,0.7-19.2,0.6-28.4-3.2c-4.6-1.9-9.4-2.1-14,0.3c-2.8,1.3-5.9,2-9,1.9
	c-1.5,0-3.3,0-3.3-2.1c0-1.6,1.3-2.9,2.9-3c3.8-0.3,7.6-0.3,11.4,0c13,1.2,26,2.6,39,3.8C181.5,403.2,183.5,402.7,186,402.5z"/>
<path class="st0" d="M75.2,405.7c9.8,2.3,19.7,0.3,29.4,1.1c1.1,0.1,2.6-0.5,3,1c0.4,1.6-0.8,2.5-2.1,2.8c-3.6,0.9-7,2.1-10.9,0.7
	c-4.6-1.6-9.5-0.4-14.3-0.6c-1.8-0.1-3.7,0-5.5-0.2c-1.7-0.2-3.5-1-3.3-3C71.6,405.5,73.8,405.9,75.2,405.7z"/>
<path class="st0" d="M268.1,399.8c-9.4-0.2-18.7-2.3-28.1-2.2c-1.1,0-2.6-0.2-2.4-1.8c0.2-1.3,1.6-0.9,2.5-0.9
	c11.2,0.4,22.4-0.7,33.5,0.9c1.6,0.2,3.9,0.5,3.9,2.3c0,2.4-2.4,1.5-3.9,1.6C271.8,399.9,269.9,399.8,268.1,399.8z"/>
<path class="st0" d="M252.4,404.9c4.5,0,9,0,13.4,0c1.4,0,3.4,0,3.6,1.8c0.1,1.6-1.9,1.5-3.1,1.8c-4.1,1.1-8.5,1.3-12.7,0.4
	c-3.7-0.8-7.7,1.2-11.7,0.8c-1.3,0-2.6-0.1-4-0.2c-1.3-0.2-2.3-1.4-2.1-2.8c0-0.1,0-0.1,0-0.2c0.2-1.5,1.3-1.8,2.5-1.8
	c4.6,0,9.3,0,13.9,0L252.4,404.9z"/>
<path class="st0" d="M291.5,415.7c9.8-4.4,19.7-2.2,29.6-0.4C311.3,419.1,301.4,417.4,291.5,415.7z"/>
<path class="st0" d="M245.5,414.1c4,0,8-0.1,12,0.1c1.6,0.1,3.6,0.7,3.1,2.9c-0.4,2-1.6,2.8-4,1.9c-3.6-1.4-7.4-2.4-11.2-3.6
	L245.5,414.1z"/>
<path class="st0" d="M38.6,407c-5,4.4-9.9,4.2-14.7,0.2C28.6,405.8,33.5,404.9,38.6,407z"/>
<path class="st0" d="M273.2,388.4c-5.3-0.2-10.6,1.1-16.8-1.9C263,385.6,268.2,387,273.2,388.4z"/>
<path class="st0" d="M56.9,394.2c3.5-0.4,6.9-1,10.4-1.2c1.4-0.1,4-0.3,3.9,1.8c0,2.5-2.7,2.5-4.3,1.8
	C63.7,395.2,60.3,394.9,56.9,394.2z"/>
<path class="st0" d="M-20.1,190.9"/>
</svg>
