<svg xmlns="http://www.w3.org/2000/svg" viewBox="0 0 22.799 73.962"><path d="M4.2,71.962c-1.112-8.3,2.964-15.9,4.3-23.909,1.329-7.964-.484-15.767-1.93-23.577A54.553,54.553,0,0,1,5.426,11.4c.148-2.572-3.852-2.563-4,0-.453,7.88,1.759,15.53,2.96,23.246a40.511,40.511,0,0,1,.385,11.5c-.536,4.031-1.882,7.912-2.97,11.815C.536,62.5-.434,67.242.2,71.962a2.067,2.067,0,0,0,2,2c.969,0,2.145-.922,2-2Z"/><path d="M10.944,10.048c-.024-.111-.045-.222-.066-.334.079.432.014.063.008-.055a5.778,5.778,0,0,1,0-.671c.007-.116.065-.49-.008-.052.019-.111.038-.222.062-.332a6.977,6.977,0,0,1,.226-.815c.037-.108.078-.214.119-.32-.029.075-.167.344,0,.007.1-.205.206-.41.323-.608s.249-.387.373-.582c.291-.457-.16.17.052-.078.093-.109.183-.222.279-.329q.258-.288.54-.553c.085-.08.172-.158.26-.234.04-.036.322-.276.139-.125-.219.18.236-.168.223-.159.1-.067.2-.132.3-.194A7.04,7.04,0,0,1,14.55,4.2c-.372.171.242-.073.342-.1.157-.045.752-.132.314-.095a5.239,5.239,0,0,1,.651-.021c.025,0,.527.079.22.012-.291-.063.156.045.212.06.106.028.206.064.31.1.463.135-.189-.142.039.022.086.061.189.1.278.16.06.038.3.254.121.079-.218-.213.147.165.151.169.091.086.147.268,0-.015.052.1.121.187.174.284s.2.544.071.128c.069.215.137.427.186.647.029.127.1.751.065.31.045.55.072,1.1.072,1.648,0,.625-.023,1.251-.07,1.874-.021.278-.05.554-.077.831s.087.189.006-.014a1.7,1.7,0,0,1-.086.469,5.567,5.567,0,0,1-.178.6c.133-.386.065-.157.006-.062-.2.327,0-.018.049-.038l-.1.107.167-.121-.142.087q.311-.114.1-.049c-.287.059.353.018.055.009-.137,0-.274,0-.412-.007.43.025.065,0-.057-.029-.141-.035-.281-.075-.419-.12-.112-.037-.22-.08-.33-.117-.424-.143.237.114-.189-.077-.627-.281-1.25-.567-1.867-.87q-1.85-.907-3.621-1.963a2,2,0,1,0-2.019,3.454q1.95,1.156,3.992,2.143a13.326,13.326,0,0,0,4.426,1.57,3.979,3.979,0,0,0,3.96-2.233,11.667,11.667,0,0,0,.795-4.614c.094-2.89-.256-6.267-3.152-7.735S12.517.287,10.222,2.321a9.332,9.332,0,0,0-3.135,8.79,2.014,2.014,0,0,0,2.46,1.4,2.046,2.046,0,0,0,1.4-2.46Z"/><path d="M5.04,12.142A21.969,21.969,0,0,1,6.5,9.856c.063-.087.128-.174.192-.26.175-.232.1-.1-.037.047.16-.172.3-.371.447-.551q.436-.521.9-1.011a21.552,21.552,0,0,1,1.936-1.8c.083-.069.167-.137.251-.2l.152-.12q.176-.138-.15.116c0-.079.448-.332.52-.383q.578-.412,1.183-.786a2.031,2.031,0,0,0,.717-2.737,2.032,2.032,0,0,0-2.736-.717,23.934,23.934,0,0,0-8.287,8.675A2.028,2.028,0,0,0,2.3,12.859a2.032,2.032,0,0,0,2.736-.717Z"/><path d="M17.089,9.879c.947,5.038.083,10.19.291,15.271.2,4.837,1.605,9.578,1.4,14.437-.206,4.823-1.836,9.5-2.57,14.259a78.281,78.281,0,0,0-.862,15.332c.111,2.564,4.111,2.578,4,0a73.166,73.166,0,0,1,.871-15.214c.828-4.942,2.46-9.8,2.577-14.843.117-5.02-1.35-9.918-1.44-14.931-.093-5.153.554-10.262-.407-15.375-.475-2.527-4.331-1.456-3.857,1.064Z"/></svg>