<svg xmlns="http://www.w3.org/2000/svg" viewBox="0 0 50.873 79.468"><path d="M21.405,2.334a11.249,11.249,0,0,0-11-1.572C6.434,2.217,3.423,5.237.567,8.24a2.023,2.023,0,0,0,.883,3.343c2.213.683,4.531,1.234,6.685,2.087,1.926.762,1.8,2.309,1.775,4.136-.054,4.683-.193,9.374-.137,14.058A36.164,36.164,0,0,0,11.54,43.987a21.4,21.4,0,0,0,7.082,9.458C22,56.109,25.83,58.2,28.941,61.2c1.855,1.787,4.687-1.038,2.829-2.828-5.557-5.353-13.917-8.15-16.572-16.007-1.341-3.967-1.449-8.2-1.431-12.345.011-2.387.053-4.774.082-7.16.028-2.331.214-4.723.035-7.049A6.25,6.25,0,0,0,10.377,10.3,57.192,57.192,0,0,0,2.513,7.726L3.4,11.069c2.225-2.34,4.513-4.821,7.491-6.2,2.325-1.078,5.559-1.409,7.69.295a2.061,2.061,0,0,0,2.828,0,2.013,2.013,0,0,0,0-2.828Z"/><path d="M17.856,4.663c2.869,4.26,7.121,7.364,10.761,10.922a74.781,74.781,0,0,1,9.99,11.694A45.484,45.484,0,0,1,45.019,41.1c1.374,5.281,1.256,10.769,1.394,16.185l.253,9.862.119,4.684.063,2.466a7.319,7.319,0,0,1-.016,2.405l.514-.883-.214.173.882-.515c.449-.1.442.063-.054-.213q-.369-.206-.728-.431c-.4-.253-.8-.521-1.172-.811a20.953,20.953,0,0,1-2.286-2.112,56.722,56.722,0,0,1-4.05-4.928c-2.7-3.547-5.443-7.1-9.332-9.418-2.217-1.32-4.231,2.137-2.019,3.453,5.279,3.142,8.161,8.947,12.224,13.35a25.273,25.273,0,0,0,3.508,3.158c1.164.864,2.659,1.967,4.174,1.943,2.662-.042,2.632-2.735,2.582-4.678l-.17-6.657-.334-13.067a76.987,76.987,0,0,0-.955-12.71c-1.474-7.61-5.244-14.609-9.95-20.694a88.766,88.766,0,0,0-8.963-9.83C27.4,8.875,23.721,6.225,21.31,2.644c-1.431-2.123-4.9-.124-3.454,2.019Z"/><path d="M32.533,37.429c-4.543-2.312-9.575.959-11.908,4.9a10.585,10.585,0,0,0,1.33,12.9c1.839,1.8,4.67-1.022,2.829-2.828a6.46,6.46,0,0,1-.823-7.849A8.466,8.466,0,0,1,27,41.372a4.9,4.9,0,0,1,2.073-.738c-.256.03.157.006.236,0a3.8,3.8,0,0,1,.544.019c-.3-.039.323.092.32.091.318.078.021-.026.337.135a2.049,2.049,0,0,0,2.737-.718,2.021,2.021,0,0,0-.718-2.736Z"/><path d="M9.793,14.5a9.4,9.4,0,0,1,1.217.658c.193.124.382.255.567.39.241.177.077.08-.055-.046.088.084.2.159.293.237a26.384,26.384,0,0,1,2.025,1.932,26.943,26.943,0,0,0,4.47,4,2.016,2.016,0,0,0,2.737-.718,2.046,2.046,0,0,0-.718-2.736c-.2-.128-.387-.259-.574-.4-.365-.269.144.122,0,0-.081-.068-.165-.133-.246-.2-.359-.3-.705-.617-1.042-.942-.678-.655-1.321-1.345-1.978-2.02a15.986,15.986,0,0,0-4.678-3.612,2.05,2.05,0,0,0-2.737.717A2.025,2.025,0,0,0,9.793,14.5Z"/></svg>