<svg xmlns="http://www.w3.org/2000/svg" viewBox="0 0 41.166 83.195"><path d="M5.189,81.632C7.02,78.693,7.772,75.24,9.73,72.363a9.819,9.819,0,0,1,7.852-4.379,10,10,0,0,1,4.7.389,5.067,5.067,0,0,1,2.54,2.887c1.339,3.274.916,6.979,2.159,10.3l1.4-2.461a6.689,6.689,0,0,1-2.671-.182c-1.1-.157-2.187-.344-3.279-.524-2.2-.361-4.4-.72-6.621-.87-4.356-.294-8.583,1.033-12.919.786-2.572-.147-2.564,3.853,0,4,4.5.256,8.867-1.117,13.388-.751,2.182.177,4.335.574,6.493.924,2.023.329,4.664,1.113,6.672.475a2.021,2.021,0,0,0,1.4-2.461c-1.435-3.827-.91-8.071-2.8-11.772C26.058,64.855,22.087,63.68,18,63.952c-4.193.279-7.891,1.575-10.61,4.909a20.789,20.789,0,0,0-2.868,4.68,48.626,48.626,0,0,1-2.784,6.073c-1.365,2.191,2.094,4.2,3.454,2.018Z"/><path d="M8.542,67.166a25.117,25.117,0,0,1-2.818-1.887l.4.313A25.049,25.049,0,0,1,3.4,63.124a2.019,2.019,0,0,0-2.828,0,2.039,2.039,0,0,0,0,2.828A26.653,26.653,0,0,0,6.523,70.62a2,2,0,0,0,2.019-3.454Z"/><path d="M28.719,70.641c1.742-.9,3.721-1.829,5.39-2.53s3.718-1.468,5.575-2.089a2,2,0,1,0-1.064-3.857A85.224,85.224,0,0,0,26.7,67.187a2.015,2.015,0,0,0-.718,2.737,2.046,2.046,0,0,0,2.736.717Z"/><path d="M20.493,65.492q-.087-17.783-.667-35.559c-.084-2.568-4.084-2.579-4,0q.581,17.773.667,35.559c.013,2.573,4.013,2.579,4,0Z"/><path d="M33.612,3.852A22.962,22.962,0,0,0,18.467.133,20.959,20.959,0,0,0,10.393,2.6,17.7,17.7,0,0,0,4.52,8.475C1.143,13.691,3.145,19.846,6.082,24.737c1.372,2.287,3.089,4.371,5.78,5.065a28.943,28.943,0,0,0,8.976.6,26.594,26.594,0,0,0,9.674-2.965c2.825-1.354,6.116-2.545,8.463-4.67a2.015,2.015,0,0,0-.882-3.342L21.772,15.155v3.857L29.2,16.1l3.713-1.457a16.175,16.175,0,0,0,3.651-1.581c1.92-1.4,1.591-4.2.388-5.963A15.491,15.491,0,0,0,31.5,2.726c-2.249-1.257-4.269,2.2-2.019,3.454a12.639,12.639,0,0,1,3.993,2.908,2.381,2.381,0,0,1,.385.653c.062.183.017.748.194.324q.345-.444-.35-.008l-.7.273-1.393.546-10.9,4.279c-1.723.676-2.067,3.317,0,3.857l16.32,4.269-.882-3.343c-1.622,1.468-4.038,2.29-5.985,3.238a33.9,33.9,0,0,1-6.9,2.854,23.623,23.623,0,0,1-7.292.3c-2.3-.183-4.194-.338-5.618-2.332C7.98,20.674,5.427,15.64,7.36,11.561,9.373,7.314,13.5,4.9,18.005,4.2A19.226,19.226,0,0,1,31.593,7.306c2.144,1.437,4.149-2.026,2.019-3.454Z"/></svg>