<svg xmlns="http://www.w3.org/2000/svg" xmlns:xlink="http://www.w3.org/1999/xlink" viewBox="0 0 66.65 84.136"><image width="30" height="38" transform="translate(2.703 0.603) scale(2.132)" xlink:href="C:%5CUsers%5CDAYTONA%5CDesktop%5Chiero_C11.png" style="opacity:0.19"/><path d="M31.683,1.454c-1.327,4.173-2.633,8.921-.858,13.167a2.055,2.055,0,0,0,2.46,1.4,2.019,2.019,0,0,0,1.4-2.46,10.009,10.009,0,0,1-.473-1.4c-.068-.269-.123-.542-.169-.817.055.334-.027-.254-.031-.3A13.329,13.329,0,0,1,34.1,8.092c-.045.321.047-.261.057-.321q.074-.428.164-.852c.106-.5.226-.994.356-1.487.26-.98.56-1.948.868-2.914a2.019,2.019,0,0,0-1.4-2.461,2.045,2.045,0,0,0-2.461,1.4Z"/><path d="M32.175,14.069c-3.488.3-5.644,3.015-6.875,6.072a23.083,23.083,0,0,0-1.433,10.574,2.055,2.055,0,0,0,2,2,2.015,2.015,0,0,0,2-2,20.886,20.886,0,0,1,.984-8.679,6.993,6.993,0,0,1,.542-1.311q.218-.425.471-.827c.075-.118.155-.234.233-.35.191-.283-.148.171.063-.093a6.4,6.4,0,0,1,.623-.673c.1-.091.2-.182.3-.264-.166.13-.014.014.073-.037.112-.065.226-.13.337-.2l.173-.088c-.151.059-.16.065-.027.017s.248-.079.375-.11c.072-.017.486-.062.16-.033a2.053,2.053,0,0,0,2-2,2.014,2.014,0,0,0-2-2Z"/><path d="M32.116,22.245q.306-.168-.012,0-.385.024-.031.008.351.02-.021-.009.327.107.018-.03a3,3,0,0,1,.31.169c-.162-.144-.158-.141.013.011a2.787,2.787,0,0,1,.25.271q-.181-.216.018.072c.066.112.126.226.182.343-.071-.18-.064-.159.02.065.081.251.16.5.225.756.145.57.255,1.151.353,1.731.1.617.142.9.206,1.568q.089.936.117,1.878a29.872,29.872,0,0,1-.134,3.76,2.006,2.006,0,0,0,2,2,2.054,2.054,0,0,0,2-2,30.625,30.625,0,0,0-.594-9.617,6.766,6.766,0,0,0-2.016-3.826,4.317,4.317,0,0,0-4.923-.6,2,2,0,0,0,2.019,3.454Z"/><path d="M34.137,34.05a4.336,4.336,0,0,0,.684,5.265,4.2,4.2,0,0,0,5.07.465,14.3,14.3,0,0,0,2.388-2.317,24.979,24.979,0,0,0,1.96-2.218c1.283-1.741,1.174-3.575.932-5.621-.455-3.852-1.038-7.889-3.2-11.21a11.882,11.882,0,0,0-8.665-5.632,2.012,2.012,0,0,0-2,2,2.047,2.047,0,0,0,2,2c4.643.523,6.667,5.814,7.406,9.728.232,1.233.387,2.477.53,3.723.137,1.2.3,2.084-.527,3.041a30.173,30.173,0,0,1-2.679,2.868c-.32.283-.718.439-.445-.073,1.208-2.272-2.243-4.3-3.454-2.019Z"/><path d="M43.467,37.191H49.82a2,2,0,0,0,0-4H43.467a2,2,0,0,0,0,4Z"/><path d="M26.048,33.327a66.5,66.5,0,0,1,7.771-.113,2.014,2.014,0,0,0,2-2,2.043,2.043,0,0,0-2-2,66.5,66.5,0,0,0-7.771.113,2,2,0,0,0,0,4Z"/><path d="M25.056,33.764c-.88,8.712,4.463,16.56,3.942,25.212-.155,2.571,3.845,2.562,4,0,.522-8.678-4.817-16.553-3.942-25.212a2.014,2.014,0,0,0-2-2,2.045,2.045,0,0,0-2,2Z"/><path d="M42.044,35.91c.689,6.219-1.462,12.151-2.44,18.213a29.773,29.773,0,0,0-.242,9.234c.381,2.548,1.7,5.718.371,8.168-1.228,2.262,2.224,4.284,3.454,2.018,1.559-2.873,1.064-5.939.446-9a25.772,25.772,0,0,1-.172-9.353c1.032-6.4,3.31-12.715,2.583-19.277a2.059,2.059,0,0,0-2-2,2.013,2.013,0,0,0-2,2Z"/><path d="M41.753,77.109a10.989,10.989,0,0,0,3.338.066,3.387,3.387,0,0,1,1.367-.05c.231.1.144-.1.166.113.171,1.709-5.135,2.1-6.109,2.246-5.637.827-11.385.674-17.064.608l-8.89-.1-2.223-.025a4.968,4.968,0,0,0-1.235-.015l-.247,0q-.8-.1.4.685c.175-.126.29-.816.418-1.054a7.319,7.319,0,0,1,1.053-1.444,71.909,71.909,0,0,1,5.317-4.993c1.827-1.64,3.686-3.254,5.632-4.752a39.6,39.6,0,0,1,14.665-7.521c2.5-.6,1.442-4.464-1.063-3.857-6.08,1.472-11.455,4.685-16.353,8.489-2.4,1.867-4.692,3.874-6.939,5.926-2.147,1.96-4.763,3.944-6.016,6.64a4.941,4.941,0,0,0-.4,4.169c.892,1.822,2.763,1.706,4.521,1.727l10.866.126c7.153.083,14.383.24,21.423-1.246,3.119-.659,6.814-2.513,6.152-6.347a4.026,4.026,0,0,0-3.224-3.261c-1.5-.3-3.025.323-4.491.02-2.512-.52-3.587,3.335-1.064,3.857Z"/><path d="M29.636,58.646c-2.792,1.282-6.172-1.95-8.292-3.323q-2.149-1.392-4.4-2.621c-1.509-.823-3.533-2.308-5.268-1.321-1.669.948-1.591,3.133-1.74,4.8q-.243,2.712-.3,5.436a79.565,79.565,0,0,0,.583,11.255,2.062,2.062,0,0,0,2,2,2.012,2.012,0,0,0,2-2,79.6,79.6,0,0,1-.6-9.7q0-2.334.141-4.664.071-1.166.175-2.328c.041-.451.075-.905.134-1.354.013-.1.022-.2.029-.292q.2-.648-.3.253l-1.009.273q-.359-.219.194.079.327.165.651.333.65.336,1.292.687,1.125.613,2.225,1.269c1.511.9,2.966,1.878,4.423,2.862,3.051,2.061,6.514,3.451,10.082,1.813a2.015,2.015,0,0,0,.718-2.736,2.048,2.048,0,0,0-2.737-.718Z"/><path d="M38.342,61.831A66.639,66.639,0,0,1,33.405,66.4a41.382,41.382,0,0,1-5.154,3.4c-3.564,2.083-7.2,4.056-10.23,6.907a2.02,2.02,0,0,0,1.414,3.414q11.079-.4,22.132-1.272a2.05,2.05,0,0,0,2-2,2.016,2.016,0,0,0-2-2q-11.052.875-22.132,1.272l1.414,3.415c2.951-2.778,6.6-4.6,10.054-6.654A53.371,53.371,0,0,0,41.171,64.66c1.832-1.813-1-4.641-2.829-2.829Z"/><path d="M50.3,36.927a20.334,20.334,0,0,0,7.465-1.005,9.008,9.008,0,0,0,5.354-5.55c1.015-2.827,1.235-6.059,1.586-9.022.392-3.3.621-6.62.711-9.943.07-2.575-3.93-2.574-4,0a83.215,83.215,0,0,1-1.739,16.459c-.456,1.96-1.321,3.56-3.277,4.315a16.912,16.912,0,0,1-6.1.746c-2.574,0-2.578,4,0,4Z"/><path d="M26.2,32.161a37.1,37.1,0,0,1-9.151,1.018c-2.5-.12-6.022-.839-7.394-3.192a19.142,19.142,0,0,1-1.437-4.533L6.791,20.3,3.939,9.983C3.254,7.506-.606,8.558.082,11.047l3.24,11.72Q4.1,25.58,4.878,28.392a11.577,11.577,0,0,0,2.351,4.993c2.326,2.546,6.084,3.537,9.4,3.77a39.868,39.868,0,0,0,10.629-1.137c2.521-.511,1.454-4.368-1.063-3.857Z"/><path d="M14.753,62.721a68.018,68.018,0,0,0,.564,7.3,2.2,2.2,0,0,0,.586,1.414,2,2,0,0,0,2.828,0,1.913,1.913,0,0,0,.586-1.414,68.018,68.018,0,0,1-.564-7.3,2,2,0,1,0-4,0Z"/><path d="M16.79,64.72a30.091,30.091,0,0,0,5.1,2.252,2,2,0,1,0,1.063-3.857q-.976-.328-1.925-.729l.478.2a27.644,27.644,0,0,1-2.694-1.322,2.087,2.087,0,0,0-1.541-.2,2,2,0,0,0-.478,3.656Z"/><path d="M32.211,3.834l-1.953-.762a1.526,1.526,0,0,0-.8-.036,1.484,1.484,0,0,0-.744.238,1.5,1.5,0,0,0-.561.515,1.515,1.515,0,0,0-.358.68L27.726,5A1.987,1.987,0,0,0,28,6.01l.313.405a1.99,1.99,0,0,0,.882.514l1.954.762a1.515,1.515,0,0,0,.8.035,1.486,1.486,0,0,0,.743-.237,1.511,1.511,0,0,0,.561-.515,1.505,1.505,0,0,0,.358-.68l.072-.532a1.987,1.987,0,0,0-.273-1.009l-.313-.405a2,2,0,0,0-.883-.514Z"/></svg>